<?xml version="1.0" encoding="UTF-8" standalone="no"?>
<svg
   xmlns:dc="http://purl.org/dc/elements/1.1/"
   xmlns:cc="http://creativecommons.org/ns#"
   xmlns:rdf="http://www.w3.org/1999/02/22-rdf-syntax-ns#"
   xmlns:svg="http://www.w3.org/2000/svg"
   xmlns="http://www.w3.org/2000/svg"
   xmlns:sodipodi="http://sodipodi.sourceforge.net/DTD/sodipodi-0.dtd"
   xmlns:inkscape="http://www.inkscape.org/namespaces/inkscape"
   version="1.1"
   x="0px"
   y="0px"
   width="2800px"
   height="2800px"
   viewBox="0 0 2800 2800"
   enable-background="new 0 0 2800 2800"
   xml:space="preserve"
   id="svg170"
   sodipodi:docname="logo.svg"
   inkscape:version="1.0.2 (394de47547, 2021-03-26)"><sodipodi:namedview
   pagecolor="#ffffff"
   bordercolor="#666666"
   borderopacity="1"
   objecttolerance="10"
   gridtolerance="10"
   guidetolerance="10"
   inkscape:pageopacity="0"
   inkscape:pageshadow="2"
   inkscape:window-width="1920"
   inkscape:window-height="1013"
   id="namedview99"
   showgrid="false"
   inkscape:zoom="0.12098214"
   inkscape:cx="-101.32385"
   inkscape:cy="1791.1093"
   inkscape:window-x="0"
   inkscape:window-y="27"
   inkscape:window-maximized="1"
   inkscape:current-layer="OBJECTS"
   inkscape:document-rotation="0" /><metadata
   id="metadata176"><rdf:RDF><cc:Work
       rdf:about=""><dc:format>image/svg+xml</dc:format><dc:type
         rdf:resource="http://purl.org/dc/dcmitype/StillImage" /><dc:title /></cc:Work></rdf:RDF></metadata><defs
   id="defs174"><rect
     x="474.39369"
     y="2561.9152"
     width="1807.7026"
     height="423.67702"
     id="rect186" /><rect
     x="482.22766"
     y="2580.8828"
     width="1923.9236"
     height="349.00884"
     id="rect180" /></defs>
<pattern
   width="168"
   height="168"
   patternUnits="userSpaceOnUse"
   id="New_Pattern"
   viewBox="0 -210 168 168"
   overflow="visible">
	<g
   id="g38">
		<polygon
   fill="none"
   points="0,-210 168,-210 168,-42 0,-42   "
   id="polygon2" />
		<g
   id="g8">
			<g
   opacity="0.3"
   id="g6">
				<polygon
   fill="#F2F2F2"
   points="84,0 168,0 168,-84 84,-84     "
   id="polygon4" />
			</g>
		</g>
		<g
   id="g14">
			<g
   opacity="0.3"
   id="g12">
				<polygon
   fill="#BDCCD4"
   points="0,0 84,0 84,-84 0,-84     "
   id="polygon10" />
			</g>
		</g>
		<g
   id="g24">
			<g
   opacity="0.3"
   id="g18">
				<polygon
   fill="#BDCCD4"
   points="84,-84 168,-84 168,-168 84,-168     "
   id="polygon16" />
			</g>
			<g
   opacity="0.3"
   id="g22">
				<polygon
   fill="#F2F2F2"
   points="0,-84 84,-84 84,-168 0,-168     "
   id="polygon20" />
			</g>
		</g>
		<g
   id="g30">
			<g
   opacity="0.3"
   id="g28">
				<polygon
   fill="#F2F2F2"
   points="84,-168 168,-168 168,-252 84,-252     "
   id="polygon26" />
			</g>
		</g>
		<g
   id="g36">
			<g
   opacity="0.3"
   id="g34">
				<polygon
   fill="#BDCCD4"
   points="0,-168 84,-168 84,-252 0,-252     "
   id="polygon32" />
			</g>
		</g>
	</g>
</pattern>

<g
   id="OBJECTS"
   transform="translate(-11.787568,-333.07849)">
	
		<radialGradient
   id="SVGID_3_"
   cx="1400"
   cy="2357.5139"
   r="565.83801"
   gradientTransform="matrix(1,0,0,0.19,0,1909.5862)"
   gradientUnits="userSpaceOnUse">
		<stop
   offset="5.618000e-03"
   style="stop-color:#4F7085"
   id="stop70" />
		<stop
   offset="0.69"
   style="stop-color:#B6D3E6"
   id="stop72" />
		<stop
   offset="1"
   style="stop-color:#CCE0F4;stop-opacity:0"
   id="stop74" />
	</radialGradient>
	
	
	
	
	
	
	
	
	<g
   id="g165"
   transform="matrix(1.06306,0,0,1.06306,-52.382014,-22.190823)"><path
     fill="none"
     d="m 1400.1,1561.9 c 0,0 0,0 0,0 -0.1,0 -0.1,0 0,0 -0.1,0 -0.1,0 -0.2,-0.1 0,0 0,0 0,0.1 0,0 -0.1,0 -0.1,0 0.1,0.5 0.1,1 0.2,1.5 0.1,-0.5 0.1,-1 0.2,-1.5 0,0 -0.1,0 -0.1,0 z"
     id="path79" /><path
     fill="#f79548"
     d="m 1400.1,1561.9 c 0,0 0,0 0,0 0.1,0 0.1,0 0.1,0 0,-0.1 0,-0.1 0,-0.2 0,0.1 -0.1,0.1 -0.1,0.2 z"
     id="path81" /><path
     fill="#6c3f99"
     d="m 1399.8,1561.9 c 0,0 0.1,0 0.1,0 0,0 0,0 0,-0.1 -0.1,0 -0.1,-0.1 -0.2,-0.1 0.1,0.1 0.1,0.2 0.1,0.2 z"
     id="path83" /><path
     fill="#ef3f6b"
     d="m 1399.9,1561.9 c 0.1,0 0.1,0 0,0 0.1,0 0.1,0 0.1,0 0,-0.1 0,-0.1 -0.1,-0.2 0.1,0.1 0.1,0.1 0,0.2 z"
     id="path85" /><path
     fill="#ef3f6b"
     d="m 1400.3,1560.9 c -0.1,0.3 -0.2,0.6 -0.3,0.8 0,0.1 0,0.1 0.1,0.2 0.1,0 0.1,-0.1 0.2,-0.1 0,-0.3 0,-0.6 0,-0.9 z"
     id="path87" /><path
     fill="#ef3f6b"
     d="m 1399.7,1560.9 c 0,0.3 0.1,0.6 0.1,0.9 0.1,0 0.1,0.1 0.2,0.1 0,-0.1 0,-0.1 0.1,-0.2 -0.2,-0.3 -0.3,-0.5 -0.4,-0.8 z"
     id="path89" /><g
     id="g143">
		<path
   fill="none"
   d="m 1400.3,1471.5 c 0,-0.3 0.1,-0.7 0.1,-1 -0.1,0.3 -0.3,0.7 -0.4,1 -0.1,-0.3 -0.3,-0.7 -0.4,-1 0,0.3 0.1,0.7 0.1,1 0,0.1 0,0.1 0,0.2 0.1,0.6 0.2,1.2 0.2,1.7 0.1,-0.6 0.2,-1.2 0.2,-1.7 0.1,-0.1 0.2,-0.2 0.2,-0.2 z"
   id="path91" />
		<path
   fill="none"
   d="m 1400.3,1471.5 c 0,-0.3 0.1,-0.7 0.1,-1 -0.1,0.3 -0.3,0.7 -0.4,1 -0.1,-0.3 -0.3,-0.7 -0.4,-1 0,0.3 0.1,0.7 0.1,1 0,0.1 0,0.1 0,0.2 0.1,0.6 0.2,1.2 0.2,1.7 0.1,-0.6 0.2,-1.2 0.2,-1.7 0.1,-0.1 0.2,-0.2 0.2,-0.2 z"
   id="path93" />
		<path
   fill="#fabf91"
   d="m 1656.2,1082.9 c 2.1,-1.3 4.3,-2.5 6.4,-3.8 86.8,-50.1 181.7,-73.1 275.1,-71.5 39.9,-141.6 29.1,-290.5 -25.8,-422.3 -96.6,12.5 -189.7,46.7 -271.8,100.7 24,70.9 37,146.9 37,225.9 0,58.9 -7.3,116.3 -20.9,171 z"
   id="path95" />
		<path
   fill="#fabf91"
   d="m 1656.2,1082.9 c 2.1,-1.3 4.3,-2.5 6.4,-3.8 86.8,-50.1 181.7,-73.1 275.1,-71.5 39.9,-141.6 29.1,-290.5 -25.8,-422.3 -96.6,12.5 -189.7,46.7 -271.8,100.7 24,70.9 37,146.9 37,225.9 0,58.9 -7.3,116.3 -20.9,171 z"
   id="path97" />
		<path
   fill="#a78cc2"
   d="m 1137.4,1079.2 c 2.2,1.2 4.3,2.5 6.4,3.8 -13.7,-54.8 -21,-112.1 -21,-171.1 0,-79 13,-155 37,-225.9 -82.1,-53.9 -175.2,-88.2 -271.8,-100.7 -54.9,131.8 -65.7,280.8 -25.8,422.3 93.5,-1.5 188.4,21.5 275.2,71.6 z"
   id="path99" />
		<path
   fill="#a78cc2"
   d="m 1137.4,1079.2 c 2.2,1.2 4.3,2.5 6.4,3.8 -13.7,-54.8 -21,-112.1 -21,-171.1 0,-79 13,-155 37,-225.9 -82.1,-53.9 -175.2,-88.2 -271.8,-100.7 -54.9,131.8 -65.7,280.8 -25.8,422.3 93.5,-1.5 188.4,21.5 275.2,71.6 z"
   id="path101" />
		<path
   fill="#c8e2a1"
   d="m 1937.7,1007.6 c -14.2,50.5 -34.9,100 -62.3,147.5 -104.3,180.7 -283,291.6 -475.1,316.5 -0.1,0.6 -0.2,1.2 -0.2,1.7 148.3,61.8 322.8,56.3 472.7,-30.3 149.9,-86.6 242,-234.9 262.6,-394.3 -62.6,-25.9 -129.7,-40 -197.7,-41.1 z"
   id="path103" />
		<path
   fill="#c8e2a1"
   d="m 1937.7,1007.6 c -14.2,50.5 -34.9,100 -62.3,147.5 -104.3,180.7 -283,291.6 -475.1,316.5 -0.1,0.6 -0.2,1.2 -0.2,1.7 148.3,61.8 322.8,56.3 472.7,-30.3 149.9,-86.6 242,-234.9 262.6,-394.3 -62.6,-25.9 -129.7,-40 -197.7,-41.1 z"
   id="path105" />
		<path
   fill="#e4b46b"
   d="m 1662.6,1079.2 c -2.2,1.2 -4.3,2.5 -6.4,3.8 -39.2,157 -131.1,293.2 -255.9,388.5 0,0.1 0,0.1 0,0.2 192.1,-24.9 370.8,-135.8 475.1,-316.5 27.4,-47.5 48.1,-97 62.3,-147.5 -93.4,-1.6 -188.3,21.4 -275.1,71.5 z"
   id="path107" />
		<path
   fill="#e4b46b"
   d="m 1662.6,1079.2 c -2.2,1.2 -4.3,2.5 -6.4,3.8 -39.2,157 -131.1,293.2 -255.9,388.5 0,0.1 0,0.1 0,0.2 192.1,-24.9 370.8,-135.8 475.1,-316.5 27.4,-47.5 48.1,-97 62.3,-147.5 -93.4,-1.6 -188.3,21.4 -275.1,71.5 z"
   id="path109" />
		<path
   fill="#66c9e5"
   d="m 924.6,1155.1 c -27.4,-47.5 -48.1,-97 -62.3,-147.5 -68,1.1 -135.1,15.2 -197.6,41.2 20.6,159.4 112.7,307.7 262.6,394.3 149.9,86.6 324.4,92.1 472.7,30.3 -0.1,-0.6 -0.2,-1.2 -0.2,-1.7 -192.1,-24.9 -370.8,-135.9 -475.2,-316.6 z"
   id="path111" />
		<path
   fill="#66c9e5"
   d="m 924.6,1155.1 c -27.4,-47.5 -48.1,-97 -62.3,-147.5 -68,1.1 -135.1,15.2 -197.6,41.2 20.6,159.4 112.7,307.7 262.6,394.3 149.9,86.6 324.4,92.1 472.7,30.3 -0.1,-0.6 -0.2,-1.2 -0.2,-1.7 -192.1,-24.9 -370.8,-135.9 -475.2,-316.6 z"
   id="path113" />
		<path
   fill="#6a76b8"
   d="m 1399.8,1471.7 c 0,-0.1 0,-0.1 0,-0.2 C 1275,1376.1 1183.1,1240 1143.9,1083 c -2.1,-1.3 -4.3,-2.5 -6.4,-3.8 -86.8,-50.1 -181.7,-73.1 -275.1,-71.5 14.2,50.5 34.9,100 62.3,147.5 104.3,180.6 283,291.6 475.1,316.5 z"
   id="path115" />
		<path
   fill="#6a76b8"
   d="m 1399.8,1471.7 c 0,-0.1 0,-0.1 0,-0.2 C 1275,1376.1 1183.1,1240 1143.9,1083 c -2.1,-1.3 -4.3,-2.5 -6.4,-3.8 -86.8,-50.1 -181.7,-73.1 -275.1,-71.5 14.2,50.5 34.9,100 62.3,147.5 104.3,180.6 283,291.6 475.1,316.5 z"
   id="path117" />
		<path
   fill="#f58ca6"
   d="m 1363.4,901.8 c 13.9,24.1 26.1,48.8 36.6,73.9 10.5,-25.1 22.7,-49.7 36.6,-73.9 51.9,-89.9 122.2,-162.5 203.5,-215.9 -45.4,-134 -129.9,-249.8 -240.1,-334 -110.1,84.1 -194.7,200 -240.1,334 81.2,53.4 151.6,126 203.5,215.9 z"
   id="path119" />
		<path
   fill="#f58ca6"
   d="m 1363.4,901.8 c 13.9,24.1 26.1,48.8 36.6,73.9 10.5,-25.1 22.7,-49.7 36.6,-73.9 51.9,-89.9 122.2,-162.5 203.5,-215.9 -45.4,-134 -129.9,-249.8 -240.1,-334 -110.1,84.1 -194.7,200 -240.1,334 81.2,53.4 151.6,126 203.5,215.9 z"
   id="path121" />
		<path
   fill="#f3737a"
   d="m 1436.6,901.8 c -13.9,24.1 -26.1,48.8 -36.6,73.9 47.3,113.1 60,233.9 41.6,349.1 43.3,-97.6 116.1,-183.2 214.6,-241.9 13.7,-54.8 21,-112.1 21,-171.1 0,-79 -13,-155 -37,-225.9 -81.3,53.4 -151.7,126 -203.6,215.9 z"
   id="path123" />
		<path
   fill="#f3737a"
   d="m 1436.6,901.8 c -13.9,24.1 -26.1,48.8 -36.6,73.9 47.3,113.1 60,233.9 41.6,349.1 43.3,-97.6 116.1,-183.2 214.6,-241.9 13.7,-54.8 21,-112.1 21,-171.1 0,-79 -13,-155 -37,-225.9 -81.3,53.4 -151.7,126 -203.6,215.9 z"
   id="path125" />
		<path
   fill="#ea6e6b"
   d="m 1656.2,1082.9 c -98.5,58.7 -171.3,144.2 -214.6,241.9 -8,50 -21.8,98.9 -41.2,145.6 0,0.3 -0.1,0.7 -0.1,1 124.7,-95.3 216.6,-231.4 255.9,-388.5 z"
   id="path127" />
		<path
   fill="#ea6e6b"
   d="m 1656.2,1082.9 c -98.5,58.7 -171.3,144.2 -214.6,241.9 -8,50 -21.8,98.9 -41.2,145.6 0,0.3 -0.1,0.7 -0.1,1 124.7,-95.3 216.6,-231.4 255.9,-388.5 z"
   id="path129" />
		<path
   fill="#d25e8e"
   d="m 1143.8,1082.9 c 98.5,58.7 171.3,144.2 214.6,241.9 -18.4,-115.2 -5.8,-236.1 41.6,-349.1 -10.5,-25.1 -22.7,-49.7 -36.6,-73.9 -51.9,-89.9 -122.2,-162.5 -203.5,-215.9 -24,70.9 -37,146.9 -37,225.9 0,59 7.3,116.4 20.9,171.1 z"
   id="path131" />
		<path
   fill="#d25e8e"
   d="m 1143.8,1082.9 c 98.5,58.7 171.3,144.2 214.6,241.9 -18.4,-115.2 -5.8,-236.1 41.6,-349.1 -10.5,-25.1 -22.7,-49.7 -36.6,-73.9 -51.9,-89.9 -122.2,-162.5 -203.5,-215.9 -24,70.9 -37,146.9 -37,225.9 0,59 7.3,116.4 20.9,171.1 z"
   id="path133" />
		<path
   fill="#ba548a"
   d="m 1358.5,1325 c 0.8,1.7 1.5,3.4 2.2,5 -0.8,-1.7 -1.5,-3.5 -2.3,-5.2 -43.3,-97.6 -116.1,-183.2 -214.6,-241.9 39.2,157 131.1,293.2 255.9,388.5 0,-0.3 -0.1,-0.7 -0.1,-1 -0.1,-1 -0.3,-2 -0.4,-3 -19,-45.7 -32.7,-93.5 -40.7,-142.4 z"
   id="path135" />
		<path
   fill="#ba548a"
   d="m 1358.5,1325 c 0.8,1.7 1.5,3.4 2.2,5 -0.8,-1.7 -1.5,-3.5 -2.3,-5.2 -43.3,-97.6 -116.1,-183.2 -214.6,-241.9 39.2,157 131.1,293.2 255.9,388.5 0,-0.3 -0.1,-0.7 -0.1,-1 -0.1,-1 -0.3,-2 -0.4,-3 -19,-45.7 -32.7,-93.5 -40.7,-142.4 z"
   id="path137" />
		<path
   fill="#d1537c"
   d="m 1400,975.7 c -47.3,113.1 -60,233.9 -41.6,349.1 0.8,1.7 1.5,3.5 2.3,5.2 -0.7,-1.7 -1.5,-3.4 -2.2,-5 8.1,48.8 21.7,96.6 40.7,142.4 0.1,1 0.3,2 0.4,3 0.1,0.3 0.3,0.7 0.4,1 0.1,-0.3 0.3,-0.7 0.4,-1 19.4,-46.8 33.2,-95.7 41.2,-145.6 18.4,-115.2 5.7,-236 -41.6,-349.1 z"
   id="path139" />
		<path
   fill="#d1537c"
   d="m 1400,975.7 c -47.3,113.1 -60,233.9 -41.6,349.1 0.8,1.7 1.5,3.5 2.3,5.2 -0.7,-1.7 -1.5,-3.4 -2.2,-5 8.1,48.8 21.7,96.6 40.7,142.4 0.1,1 0.3,2 0.4,3 0.1,0.3 0.3,0.7 0.4,1 0.1,-0.3 0.3,-0.7 0.4,-1 19.4,-46.8 33.2,-95.7 41.2,-145.6 18.4,-115.2 5.7,-236 -41.6,-349.1 z"
   id="path141" />
	</g><g
     id="g167">
		<g
   id="g149">
			<path
   fill="#fabf91"
   d="m 900.4,1604.4 c -15.4,0 -29.5,7 -38.9,19.2 -9.3,12.2 -12.3,27.6 -8.3,42.4 14.3,52.2 31.9,99.8 52.7,142.2 12,8.8 24.6,16.5 37.9,22.9 12.7,6.2 26,11 39.6,14.3 0.7,0.2 1.3,0.3 2,0.5 7.5,0.8 15,1.7 22.5,2.6 -35.8,-78.7 -52,-152.7 -59.3,-202.3 -3.4,-23.8 -24.2,-41.8 -48.2,-41.8 z"
   id="path145" />
			<path
   fill="#fabf91"
   d="m 1938.5,1623.6 c -9.3,-12.2 -23.5,-19.2 -38.9,-19.2 -24,0 -44.8,18 -48.3,41.8 -7.3,49.6 -23.5,123.6 -59.3,202.3 7.5,-0.9 15,-1.8 22.5,-2.6 0.7,-0.2 1.3,-0.3 2,-0.5 13.6,-3.3 26.9,-8.1 39.6,-14.3 13.3,-6.4 25.9,-14.2 37.9,-22.9 20.8,-42.4 38.4,-90.1 52.7,-142.2 4.1,-14.7 1.1,-30.2 -8.2,-42.4 z"
   id="path147" />
		</g>
		<g
   id="g155">
			<path
   fill="#66c9e5"
   d="m 807.7,1548.9 c -3.6,-23.9 -24.5,-42 -48.7,-42 -14.7,0 -28.5,6.5 -37.9,17.8 -9.4,11.3 -13.2,26.1 -10.5,40.5 4.6,24.7 11.3,53.4 20.9,84.2 0.5,0 1,0 1.5,0.1 5.1,0.4 9.8,1.9 13.9,3.8 8.3,3.8 14.8,8.8 20.9,14 6,5.2 11.5,10.7 16.7,16.3 5.2,5.6 10.3,11.2 15.2,16.9 l 14.6,17 c 9.6,11.3 19.3,22.5 29.2,33.3 8.5,9.2 17.1,18.2 26.1,26.8 -27.6,-66.2 -44.1,-132.1 -53.7,-181.4 -3.1,-15.9 -5.9,-31.8 -8.2,-47.3 z"
   id="path151" />
			<path
   fill="#66c9e5"
   d="m 2078.8,1524.7 c -9.4,-11.3 -23.2,-17.8 -37.9,-17.8 -24.2,0 -45.1,18 -48.7,42 -2.3,15.6 -5,31.5 -8.1,47.2 -9.6,49.3 -26.2,115.1 -53.7,181.4 9,-8.6 17.6,-17.6 26.1,-26.8 9.9,-10.8 19.5,-22 29.2,-33.3 l 14.6,-17 c 4.9,-5.6 10,-11.3 15.2,-16.9 5.3,-5.6 10.7,-11.1 16.7,-16.3 6.1,-5.2 12.6,-10.3 20.9,-14 4.1,-1.8 8.8,-3.3 13.9,-3.8 0.5,0 1,-0.1 1.5,-0.1 9.6,-30.8 16.2,-59.5 20.9,-84.2 2.6,-14.4 -1.2,-29.1 -10.6,-40.4 z"
   id="path153" />
		</g>
		<g
   id="g161">
			<path
   fill="#a78cc2"
   d="m 680.3,1497.6 v 0 c 0,0 0,0 0,0 l -0.1,-1.2 c -3,-31.1 -28.9,-54.6 -60.2,-54.6 -17.9,0 -32.5,14.6 -32.5,32.5 v 2.1 c 0,0.5 -1.6,47 15.7,106.7 11.2,38.6 32.1,88.5 71.1,135 0,-2.8 0.1,-5.6 0.3,-8.5 0.7,-8.2 2.4,-16.4 5.8,-24.3 3.4,-7.9 8.5,-15.3 15.1,-21.2 4.7,-4.2 10.1,-7.6 15.8,-10.1 -0.5,-1.5 -0.9,-2.9 -1.4,-4.4 -18,-60.5 -26,-116 -29.6,-152 z"
   id="path157" />
			<path
   fill="#a78cc2"
   d="m 2212.5,1476.4 v -2.1 c 0,-17.9 -14.6,-32.5 -32.5,-32.5 -31.3,0 -57.1,23.5 -60.2,54.6 l -0.1,1.2 c 0,0 0,0 0,0 v 0 c -3.5,35.9 -11.6,91.5 -29.8,152 -0.4,1.5 -0.9,2.9 -1.4,4.4 5.7,2.5 11.1,5.9 15.8,10.1 6.6,5.9 11.7,13.3 15.1,21.2 3.4,7.9 5.2,16.2 5.8,24.3 0.2,2.8 0.3,5.7 0.3,8.5 39,-46.5 60,-96.4 71.1,-135 17.4,-59.7 15.9,-106.2 15.9,-106.7 z"
   id="path159" />
		</g>
		<path
   fill="#f58ca6"
   d="m 1649.7,1708.6 c 0,161.6 -189.7,182.6 -249.7,323.3 -59.9,-140.7 -249.7,-161.6 -249.7,-323.3 0,-71.1 57.6,-128.7 128.7,-128.7 55.6,0 103,35.3 121,84.8 18,-49.4 65.3,-84.8 121,-84.8 71.1,0 128.7,57.7 128.7,128.7 z"
   id="path163" />
		<path
   fill="#c8e2a1"
   d="m 2300.4,1499.6 c -7.7,-8.6 -18.4,-13.4 -30.1,-13.4 -20.3,0 -37.6,15.3 -40.1,35.6 -6.9,55.8 -30.6,154 -111.1,233.7 -0.1,0.4 -0.2,0.8 -0.3,1.1 -4.9,14.8 -11.7,28.8 -20,41.7 -8.3,12.9 -17.8,24.9 -28.3,35.8 l -30.9,32.2 c -20.6,21.5 -41.1,43 -61.5,64.7 v 0 c 0.2,-0.2 0.3,-0.4 0.5,-0.6 3.6,-4.7 7.3,-9.5 10.9,-14.2 7.3,-9.3 14.7,-18.5 22.2,-27.7 0.7,-0.9 1.4,-1.7 2.1,-2.5 6.7,-8.2 13.5,-16.5 20.3,-24.7 l 28.7,-34.2 c 9.5,-11.1 17.9,-22.9 25,-35.5 0.8,-1.4 1.6,-2.8 2.3,-4.2 0.2,-0.5 0.5,-0.9 0.7,-1.4 0.5,-1 1,-2 1.5,-3 0.3,-0.5 0.5,-1 0.8,-1.5 0.6,-1.2 1.2,-2.4 1.7,-3.6 0.1,-0.3 0.3,-0.5 0.4,-0.8 v 0 c 3.7,-8.1 6.9,-16.4 9.3,-24.9 3.8,-13.6 5.6,-27.7 4,-41 -0.8,-6.6 -2.4,-13 -5.1,-18.7 -2.7,-5.7 -6.4,-10.7 -11.1,-14.5 -4.6,-3.9 -10.2,-6.6 -16.2,-8.3 l -2.3,-0.6 c -0.6,-0.1 -1.1,-0.2 -1.7,-0.3 -1.1,-0.1 -2.2,-0.1 -3.4,0 -2.3,0.3 -4.8,1.1 -7.5,2.3 -5.2,2.5 -10.6,6.7 -15.7,11.3 -5.1,4.6 -10,9.8 -14.9,15.2 -4.8,5.4 -9.6,11 -14.3,16.6 l -14.2,17.1 c -9.5,11.5 -19.1,23 -29.2,34.3 -10,11.3 -20.6,22.2 -31.7,32.7 -11.1,10.5 -22.9,20.4 -35.5,29.4 -12.6,9 -25.9,17.1 -40.1,23.7 -12.1,5.7 -24.8,10.3 -37.9,13.7 0,0 0,0 0,0 -0.6,0.2 -1.3,0.3 -1.9,0.5 -1.5,0.4 -3.1,0.7 -4.6,1.1 -1.8,0.4 -3.5,0.7 -5.3,1.1 -1.3,0.2 -2.5,0.5 -3.8,0.7 -0.4,0.1 -0.9,0.2 -1.3,0.2 -1.6,0.3 -3.2,0.5 -4.8,0.7 -0.1,0 -0.1,0 -0.2,0 -1.7,0.2 -3.4,0.5 -5.1,0.6 -0.9,0.1 -1.8,0.2 -2.7,0.3 -7.6,0.7 -15.1,1 -22.7,1 -75.6,10.4 -152.1,29.3 -225.3,89.3 -80.2,65.8 -116.8,144.3 -133.3,198.5 -15,49.1 -16.8,87.8 -16.9,99.7 -0.2,-11.9 -1.9,-50.6 -16.9,-99.7 -16.5,-54.2 -53.1,-132.7 -133.3,-198.5 -73.2,-60 -149.7,-79 -225.3,-89.3 -7.6,0.1 -15.2,-0.2 -22.7,-1 -0.9,-0.1 -1.8,-0.2 -2.7,-0.3 -1.7,-0.2 -3.4,-0.4 -5.1,-0.6 -0.1,0 -0.1,0 -0.2,0 -1.6,-0.2 -3.2,-0.5 -4.8,-0.7 -0.4,-0.1 -0.9,-0.2 -1.3,-0.2 -1.3,-0.2 -2.5,-0.4 -3.8,-0.7 -1.8,-0.3 -3.5,-0.7 -5.3,-1.1 -1.5,-0.3 -3.1,-0.7 -4.6,-1.1 -0.6,-0.2 -1.3,-0.3 -1.9,-0.5 0,0 0,0 0,0 -13.1,-3.3 -25.7,-8 -37.9,-13.7 -14.2,-6.6 -27.5,-14.8 -40.1,-23.7 -12.6,-9 -24.3,-18.9 -35.5,-29.4 -11.1,-10.5 -21.7,-21.4 -31.7,-32.7 -10,-11.3 -19.7,-22.8 -29.2,-34.3 l -14.2,-17.1 c -4.7,-5.7 -9.5,-11.2 -14.3,-16.6 -4.8,-5.4 -9.8,-10.6 -14.9,-15.2 -5.1,-4.6 -10.4,-8.8 -15.7,-11.3 -2.6,-1.2 -5.1,-2.1 -7.5,-2.3 -1.2,-0.1 -2.3,-0.1 -3.4,0 -0.6,0.1 -1,0.2 -1.7,0.3 l -2.3,0.6 c -6.1,1.7 -11.6,4.5 -16.2,8.3 -4.7,3.8 -8.4,8.8 -11.1,14.5 -2.7,5.7 -4.3,12.1 -5.1,18.7 -1.5,13.3 0.2,27.4 4,41 2.4,8.5 5.5,16.8 9.3,24.9 v 0 c 0.1,0.3 0.3,0.6 0.4,0.8 0.6,1.2 1.1,2.4 1.7,3.6 0.2,0.5 0.5,1 0.8,1.5 0.5,1 1,2 1.5,3 0.2,0.5 0.5,0.9 0.7,1.4 0.8,1.4 1.5,2.8 2.3,4.2 7.1,12.6 15.5,24.4 25,35.5 l 28.7,34.2 c 6.8,8.2 13.5,16.4 20.3,24.7 0.7,0.8 1.4,1.7 2.1,2.5 7.5,9.2 14.9,18.4 22.2,27.7 3.7,4.7 7.3,9.4 10.9,14.2 0.2,0.2 0.3,0.4 0.5,0.6 v 0 c -20.4,-21.7 -40.9,-43.3 -61.5,-64.7 l -30.9,-32.2 c -10.5,-11 -20.1,-22.9 -28.3,-35.8 -8.3,-12.9 -15.1,-26.8 -20,-41.7 -0.1,-0.4 -0.2,-0.8 -0.3,-1.1 -80.4,-79.6 -104.2,-177.8 -111.1,-233.7 -2.5,-20.3 -19.7,-35.6 -40.1,-35.6 -11.7,0 -22.3,4.7 -30.1,13.4 -7.7,8.5 -11.4,20 -10.1,31.4 50,467.8 440.5,821.4 910.5,826.5 470,-5.1 860.5,-358.7 910.5,-826.5 1.6,-11.4 -2.1,-22.8 -9.7,-31.4 z"
   id="path165"
   style="fill:#ff7f2a" />
	<text
   xml:space="preserve"
   id="text178"
   style="font-size:74.6667px;line-height:1.25;font-family:sans-serif;letter-spacing:0px;white-space:pre;shape-inside:url(#rect180);" /><g
   aria-label="SEVANJALI FOUNDATION"
   transform="matrix(3.4641415,0,0,3.4618038,-3367.8956,-6467.2728)"
   id="text184"
   style="font-size:85.3333px;line-height:0.95;font-family:sans-serif;letter-spacing:-2.14267px;word-spacing:-2.18021px;white-space:pre;shape-inside:url(#rect186);fill:#ff5555"><path
     d="m 1177.5206,2618.534 q 2.8159,0 4.6079,-0.4267 1.8774,-0.512 2.9867,-1.28 1.1093,-0.8533 1.536,-1.9626 0.4267,-1.1094 0.4267,-2.4747 0,-2.9013 -2.7307,-4.7787 -2.7307,-1.9626 -9.3866,-4.1813 -2.9014,-1.024 -5.8027,-2.304 -2.9013,-1.3653 -5.2053,-3.328 -2.304,-2.048 -3.7547,-4.864 -1.4507,-2.9013 -1.4507,-6.9973 0,-4.096 1.536,-7.3387 1.536,-3.328 4.352,-5.632 2.816,-2.304 6.8267,-3.4987 4.0107,-1.28 9.0453,-1.28 5.9733,0 10.3253,1.28 4.352,1.28 7.168,2.816 l -3.84,10.496 q -2.4746,-1.28 -5.5466,-2.2186 -2.9867,-1.024 -7.2534,-1.024 -4.7786,0 -6.9119,1.3653 -2.048,1.28 -2.048,4.0107 0,1.6213 0.768,2.7306 0.768,1.1094 2.1333,2.048 1.4507,0.8534 3.2427,1.6214 1.8773,0.6826 4.0959,1.4506 4.608,1.7067 8.0214,3.4134 3.4133,1.6213 5.632,3.84 2.304,2.2186 3.4133,5.2053 1.1093,2.9867 1.1093,7.2533 0,8.2774 -5.8026,12.8854 -5.8027,4.5226 -17.4933,4.5226 -3.9254,0 -7.0827,-0.512 -3.1573,-0.4266 -5.632,-1.1093 -2.3893,-0.6827 -4.1813,-1.4507 -1.7067,-0.768 -2.9014,-1.4506 l 3.7547,-10.5814 q 2.6453,1.4507 6.4853,2.6454 3.9254,1.1093 9.5574,1.1093 z"
     style="font-style:normal;font-variant:normal;font-weight:bold;font-stretch:normal;font-size:85.3333px;font-family:Ubuntu;-inkscape-font-specification:'Ubuntu Bold';text-align:center;text-anchor:middle;fill:#ff5555"
     id="path197" /><path
     d="m 1208.9165,2628.6887 v -59.136 h 39.936 v 11.1786 h -26.624 v 11.6054 h 23.6374 v 10.9226 h -23.6374 v 14.2507 h 28.5867 v 11.1787 z"
     style="font-style:normal;font-variant:normal;font-weight:bold;font-stretch:normal;font-size:85.3333px;font-family:Ubuntu;-inkscape-font-specification:'Ubuntu Bold';text-align:center;text-anchor:middle;fill:#ff5555"
     id="path199" /><path
     d="m 1277.0192,2628.6887 q -3.4987,-7.424 -6.912,-15.4454 -3.4134,-8.0213 -6.4854,-15.872 -3.072,-7.8506 -5.7173,-15.0186 -2.56,-7.168 -4.4373,-12.8 h 14.6773 q 1.7067,5.12 3.6693,11.0933 2.048,5.888 4.096,11.776 2.1334,5.888 4.096,11.264 1.9627,5.376 3.6694,9.3013 1.6213,-3.9253 3.584,-9.3013 2.048,-5.376 4.096,-11.264 2.1333,-5.888 4.096,-11.776 2.048,-5.9733 3.7546,-11.0933 h 14.1654 q -1.9627,5.632 -4.5227,12.8 -2.56,7.168 -5.632,15.0186 -3.072,7.8507 -6.4853,15.872 -3.4134,8.0214 -6.912,15.4454 z"
     style="font-style:normal;font-variant:normal;font-weight:bold;font-stretch:normal;font-size:85.3333px;font-family:Ubuntu;-inkscape-font-specification:'Ubuntu Bold';text-align:center;text-anchor:middle;fill:#ff5555"
     id="path201" /><path
     d="m 1353.0591,2628.6887 q -0.9386,-3.072 -2.1333,-6.3147 -1.1093,-3.2427 -2.2187,-6.4853 h -23.04 q -1.1093,3.2426 -2.3039,6.4853 -1.1094,3.2427 -2.048,6.3147 h -13.824 q 3.328,-9.5574 6.3146,-17.664 2.9867,-8.1067 5.8027,-15.2747 2.9013,-7.168 5.632,-13.568 2.816,-6.4853 5.8026,-12.6293 h 12.7147 q 2.9013,6.144 5.7173,12.6293 2.816,6.4 5.632,13.568 2.9014,7.168 5.888,15.2747 2.9867,8.1066 6.3147,17.664 z m -15.9573,-45.7387 q -0.4267,1.28 -1.28,3.4987 -0.8533,2.2186 -1.9627,5.12 -1.1093,2.9013 -2.4746,6.4 -1.28,3.4986 -2.6454,7.3386 h 16.8107 q -1.3653,-3.84 -2.6453,-7.3386 -1.28,-3.4987 -2.4747,-6.4 -1.1093,-2.9014 -1.9627,-5.12 -0.8533,-2.2187 -1.3653,-3.4987 z"
     style="font-style:normal;font-variant:normal;font-weight:bold;font-stretch:normal;font-size:85.3333px;font-family:Ubuntu;-inkscape-font-specification:'Ubuntu Bold';text-align:center;text-anchor:middle;fill:#ff5555"
     id="path203" /><path
     d="m 1412.5018,2628.6887 q -5.7174,-10.1547 -12.3734,-20.0534 -6.656,-9.8986 -14.1653,-18.688 v 38.7414 h -13.1413 v -59.136 h 10.8373 q 2.816,2.816 6.2293,6.912 3.4134,4.096 6.912,8.7893 3.584,4.608 7.0827,9.6427 3.4987,4.9493 6.5707,9.5573 v -34.9013 h 13.2266 v 59.136 z"
     style="font-style:normal;font-variant:normal;font-weight:bold;font-stretch:normal;font-size:85.3333px;font-family:Ubuntu;-inkscape-font-specification:'Ubuntu Bold';text-align:center;text-anchor:middle;fill:#ff5555"
     id="path205" /><path
     d="m 1467.5204,2608.806 q 0,4.352 -1.024,8.192 -0.9387,3.84 -3.4133,6.7413 -2.3894,2.816 -6.5707,4.5227 -4.096,1.6213 -10.4107,1.6213 -5.8026,0 -9.9839,-1.3653 -4.1814,-1.4507 -6.912,-3.328 l 4.4373,-10.3253 q 2.4747,1.4506 5.2907,2.56 2.816,1.1093 6.1439,1.1093 4.864,0 6.9974,-2.3893 2.1333,-2.3894 2.1333,-8.0214 v -38.5706 h 13.312 z"
     style="font-style:normal;font-variant:normal;font-weight:bold;font-stretch:normal;font-size:85.3333px;font-family:Ubuntu;-inkscape-font-specification:'Ubuntu Bold';text-align:center;text-anchor:middle;fill:#ff5555"
     id="path207" /><path
     d="m 1516.131,2628.6887 q -0.9386,-3.072 -2.1333,-6.3147 -1.1093,-3.2427 -2.2187,-6.4853 h -23.04 q -1.1093,3.2426 -2.304,6.4853 -1.1093,3.2427 -2.0479,6.3147 h -13.824 q 3.328,-9.5574 6.3146,-17.664 2.9867,-8.1067 5.8027,-15.2747 2.9013,-7.168 5.632,-13.568 2.816,-6.4853 5.8026,-12.6293 h 12.7147 q 2.9013,6.144 5.7173,12.6293 2.816,6.4 5.632,13.568 2.9014,7.168 5.888,15.2747 2.9867,8.1066 6.3147,17.664 z m -15.9573,-45.7387 q -0.4267,1.28 -1.28,3.4987 -0.8533,2.2186 -1.9627,5.12 -1.1093,2.9013 -2.4746,6.4 -1.28,3.4986 -2.6454,7.3386 h 16.8107 q -1.3653,-3.84 -2.6453,-7.3386 -1.28,-3.4987 -2.4747,-6.4 -1.1093,-2.9014 -1.9627,-5.12 -0.8533,-2.2187 -1.3653,-3.4987 z"
     style="font-style:normal;font-variant:normal;font-weight:bold;font-stretch:normal;font-size:85.3333px;font-family:Ubuntu;-inkscape-font-specification:'Ubuntu Bold';text-align:center;text-anchor:middle;fill:#ff5555"
     id="path209" /><path
     d="m 1575.403,2617.254 v 11.4347 h -39.5093 v -59.136 h 13.312 v 47.7013 z"
     style="font-style:normal;font-variant:normal;font-weight:bold;font-stretch:normal;font-size:85.3333px;font-family:Ubuntu;-inkscape-font-specification:'Ubuntu Bold';text-align:center;text-anchor:middle;fill:#ff5555"
     id="path211" /><path
     d="m 1581.751,2569.5527 h 13.312 v 59.136 h -13.312 z"
     style="font-style:normal;font-variant:normal;font-weight:bold;font-stretch:normal;font-size:85.3333px;font-family:Ubuntu;-inkscape-font-specification:'Ubuntu Bold';text-align:center;text-anchor:middle;fill:#ff5555"
     id="path213" /><path
     d="m 1111.2972,2713.8281 v -59.136 h 39.5947 v 11.1786 h -26.2827 v 12.3734 h 23.3814 v 11.1786 h -23.3814 v 24.4054 z"
     style="font-style:normal;font-variant:normal;font-weight:bold;font-stretch:normal;font-family:Ubuntu;-inkscape-font-specification:'Ubuntu Bold';fill:#ff5555"
     id="path215" /><path
     d="m 1168.6666,2684.2174 q 0,4.352 1.024,7.8507 1.1093,3.4986 3.072,6.0586 2.0479,2.4747 4.9493,3.84 2.9013,1.3654 6.656,1.3654 3.6693,0 6.5706,-1.3654 2.9867,-1.3653 4.9494,-3.84 2.048,-2.56 3.072,-6.0586 1.1093,-3.4987 1.1093,-7.8507 0,-4.352 -1.1093,-7.8507 -1.024,-3.584 -3.072,-6.0586 -1.9627,-2.56 -4.9494,-3.9254 -2.9013,-1.3653 -6.5706,-1.3653 -3.7547,0 -6.656,1.4507 -2.9014,1.3653 -4.9493,3.9253 -1.9627,2.4747 -3.072,6.0587 -1.024,3.4986 -1.024,7.7653 z m 45.1413,0 q 0,7.5947 -2.304,13.3973 -2.2187,5.7174 -6.144,9.6427 -3.9254,3.84 -9.3867,5.8027 -5.376,1.9626 -11.6053,1.9626 -6.0587,0 -11.4347,-1.9626 -5.376,-1.9627 -9.3866,-5.8027 -4.0107,-3.9253 -6.3147,-9.6427 -2.304,-5.8026 -2.304,-13.3973 0,-7.5947 2.3893,-13.312 2.3894,-5.8027 6.4,-9.728 4.096,-3.9253 9.3867,-5.888 5.376,-1.9626 11.264,-1.9626 6.0586,0 11.4346,1.9626 5.376,1.9627 9.3867,5.888 4.0107,3.9253 6.3147,9.728 2.304,5.7173 2.304,13.312 z"
     style="font-style:normal;font-variant:normal;font-weight:bold;font-stretch:normal;font-family:Ubuntu;-inkscape-font-specification:'Ubuntu Bold';fill:#ff5555"
     id="path217" /><path
     d="m 1245.8038,2715.0227 q -6.2293,0 -10.7519,-1.7066 -4.5227,-1.792 -7.5094,-4.864 -2.9013,-3.1574 -4.352,-7.424 -1.3653,-4.352 -1.3653,-9.5574 v -36.7786 h 13.312 v 35.6693 q 0,3.584 0.768,6.144 0.8533,2.4747 2.2187,4.096 1.4506,1.536 3.4133,2.2187 2.048,0.6826 4.4373,0.6826 4.864,0 7.8507,-2.9866 3.072,-2.9867 3.072,-10.1547 v -35.6693 h 13.312 v 36.7786 q 0,5.2054 -1.4507,9.5574 -1.4507,4.352 -4.4373,7.5093 -2.9867,3.072 -7.5947,4.7787 -4.608,1.7066 -10.9227,1.7066 z"
     style="font-style:normal;font-variant:normal;font-weight:bold;font-stretch:normal;font-family:Ubuntu;-inkscape-font-specification:'Ubuntu Bold';fill:#ff5555"
     id="path219" /><path
     d="m 1320.5491,2713.8281 q -5.7173,-10.1547 -12.3733,-20.0534 -6.656,-9.8986 -14.1653,-18.688 v 38.7414 h -13.1413 v -59.136 h 10.8373 q 2.816,2.816 6.2293,6.912 3.4134,4.096 6.912,8.7893 3.584,4.608 7.0827,9.6427 3.4986,4.9493 6.5706,9.5573 v -34.9013 h 13.2267 v 59.136 z"
     style="font-style:normal;font-variant:normal;font-weight:bold;font-stretch:normal;font-family:Ubuntu;-inkscape-font-specification:'Ubuntu Bold';fill:#ff5555"
     id="path221" /><path
     d="m 1356.5385,2702.9907 q 0.9386,0.085 2.1333,0.1707 1.28,0 2.9867,0 9.9839,0 14.7626,-5.0347 4.864,-5.0346 4.864,-13.9093 0,-9.3013 -4.608,-14.08 -4.608,-4.7787 -14.592,-4.7787 -1.3653,0 -2.816,0.085 -1.4506,0 -2.7306,0.1706 z m 38.4853,-18.7733 q 0,7.68 -2.3894,13.3973 -2.3893,5.7174 -6.8266,9.472 -4.352,3.7547 -10.6667,5.632 -6.3146,1.8774 -14.1653,1.8774 -3.584,0 -8.3627,-0.3414 -4.7786,-0.256 -9.3866,-1.1946 v -57.6 q 4.608,-0.8533 9.5573,-1.1093 5.0347,-0.3414 8.6187,-0.3414 7.5946,0 13.7386,1.7067 6.2293,1.7066 10.6667,5.376 4.4373,3.6693 6.8266,9.3866 2.3894,5.7174 2.3894,13.7387 z"
     style="font-style:normal;font-variant:normal;font-weight:bold;font-stretch:normal;font-family:Ubuntu;-inkscape-font-specification:'Ubuntu Bold';fill:#ff5555"
     id="path223" /><path
     d="m 1441.3451,2713.8281 q -0.9387,-3.072 -2.1333,-6.3147 -1.1094,-3.2427 -2.2187,-6.4853 h -23.04 q -1.1093,3.2426 -2.304,6.4853 -1.1093,3.2427 -2.048,6.3147 h -13.824 q 3.328,-9.5574 6.3147,-17.664 2.9866,-8.1067 5.8026,-15.2747 2.9014,-7.168 5.632,-13.568 2.816,-6.4853 5.8027,-12.6293 h 12.7147 q 2.9013,6.144 5.7173,12.6293 2.816,6.4 5.632,13.568 2.9013,7.168 5.888,15.2747 2.9866,8.1066 6.3146,17.664 z m -15.9573,-45.7387 q -0.4267,1.28 -1.28,3.4987 -0.8534,2.2186 -1.9627,5.12 -1.1093,2.9013 -2.4747,6.4 -1.28,3.4986 -2.6453,7.3386 h 16.8107 q -1.3654,-3.84 -2.6454,-7.3386 -1.28,-3.4987 -2.4746,-6.4 -1.1094,-2.9014 -1.9627,-5.12 -0.8533,-2.2187 -1.3653,-3.4987 z"
     style="font-style:normal;font-variant:normal;font-weight:bold;font-stretch:normal;font-family:Ubuntu;-inkscape-font-specification:'Ubuntu Bold';fill:#ff5555"
     id="path225" /><path
     d="m 1497.969,2654.6921 v 11.3493 h -17.8346 v 47.7867 h -13.312 v -47.7867 h -17.8347 v -11.3493 z"
     style="font-style:normal;font-variant:normal;font-weight:bold;font-stretch:normal;font-family:Ubuntu;-inkscape-font-specification:'Ubuntu Bold';fill:#ff5555"
     id="path227" /><path
     d="m 1504.2984,2654.6921 h 13.312 v 59.136 h -13.312 z"
     style="font-style:normal;font-variant:normal;font-weight:bold;font-stretch:normal;font-family:Ubuntu;-inkscape-font-specification:'Ubuntu Bold';fill:#ff5555"
     id="path229" /><path
     d="m 1540.3344,2684.2174 q 0,4.352 1.024,7.8507 1.1093,3.4986 3.072,6.0586 2.048,2.4747 4.9493,3.84 2.9013,1.3654 6.656,1.3654 3.6693,0 6.5707,-1.3654 2.9866,-1.3653 4.9493,-3.84 2.048,-2.56 3.072,-6.0586 1.1093,-3.4987 1.1093,-7.8507 0,-4.352 -1.1093,-7.8507 -1.024,-3.584 -3.072,-6.0586 -1.9627,-2.56 -4.9493,-3.9254 -2.9014,-1.3653 -6.5707,-1.3653 -3.7547,0 -6.656,1.4507 -2.9013,1.3653 -4.9493,3.9253 -1.9627,2.4747 -3.072,6.0587 -1.024,3.4986 -1.024,7.7653 z m 45.1413,0 q 0,7.5947 -2.304,13.3973 -2.2187,5.7174 -6.144,9.6427 -3.9253,3.84 -9.3867,5.8027 -5.376,1.9626 -11.6053,1.9626 -6.0587,0 -11.4347,-1.9626 -5.376,-1.9627 -9.3866,-5.8027 -4.0107,-3.9253 -6.3147,-9.6427 -2.304,-5.8026 -2.304,-13.3973 0,-7.5947 2.3893,-13.312 2.3894,-5.8027 6.4,-9.728 4.096,-3.9253 9.3867,-5.888 5.376,-1.9626 11.264,-1.9626 6.0587,0 11.4347,1.9626 5.376,1.9627 9.3866,5.888 4.0107,3.9253 6.3147,9.728 2.304,5.7173 2.304,13.312 z"
     style="font-style:normal;font-variant:normal;font-weight:bold;font-stretch:normal;font-family:Ubuntu;-inkscape-font-specification:'Ubuntu Bold';fill:#ff5555"
     id="path231" /><path
     d="m 1634.0263,2713.8281 q -5.7173,-10.1547 -12.3733,-20.0534 -6.656,-9.8986 -14.1653,-18.688 v 38.7414 h -13.1414 v -59.136 h 10.8374 q 2.816,2.816 6.2293,6.912 3.4133,4.096 6.912,8.7893 3.584,4.608 7.0827,9.6427 3.4986,4.9493 6.5706,9.5573 v -34.9013 h 13.2267 v 59.136 z"
     style="font-style:normal;font-variant:normal;font-weight:bold;font-stretch:normal;font-family:Ubuntu;-inkscape-font-specification:'Ubuntu Bold';fill:#ff5555"
     id="path233" /></g></g></g>
</g>
</svg>
