<?xml version="1.0" encoding="UTF-8" standalone="no"?>
<svg
   xmlns:dc="http://purl.org/dc/elements/1.1/"
   xmlns:cc="http://creativecommons.org/ns#"
   xmlns:rdf="http://www.w3.org/1999/02/22-rdf-syntax-ns#"
   xmlns:svg="http://www.w3.org/2000/svg"
   xmlns="http://www.w3.org/2000/svg"
   xmlns:sodipodi="http://sodipodi.sourceforge.net/DTD/sodipodi-0.dtd"
   xmlns:inkscape="http://www.inkscape.org/namespaces/inkscape"
   version="1.1"
   x="0px"
   y="0px"
   width="4000"
   height="1000"
   viewBox="0 0 4000 1000"
   enable-background="new 0 0 2800 2800"
   xml:space="preserve"
   id="svg170"
   sodipodi:docname="logo.svg"
   inkscape:version="1.0.2 (394de47547, 2021-03-26)"><sodipodi:namedview
   pagecolor="#ffffff"
   bordercolor="#666666"
   borderopacity="1"
   objecttolerance="10"
   gridtolerance="10"
   guidetolerance="10"
   inkscape:pageopacity="0"
   inkscape:pageshadow="2"
   inkscape:window-width="1920"
   inkscape:window-height="1013"
   id="namedview99"
   showgrid="false"
   inkscape:zoom="0.44475"
   inkscape:cx="2000"
   inkscape:cy="510.55414"
   inkscape:window-x="0"
   inkscape:window-y="27"
   inkscape:window-maximized="1"
   inkscape:current-layer="g167"
   inkscape:document-rotation="0" /><metadata
   id="metadata176"><rdf:RDF><cc:Work
       rdf:about=""><dc:format>image/svg+xml</dc:format><dc:type
         rdf:resource="http://purl.org/dc/dcmitype/StillImage" /><dc:title></dc:title></cc:Work></rdf:RDF></metadata><defs
   id="defs174"><rect
     x="474.39368"
     y="2561.9153"
     width="1807.7026"
     height="423.67703"
     id="rect186" /><rect
     x="482.22766"
     y="2580.8828"
     width="1923.9236"
     height="349.00885"
     id="rect180" /></defs>
<pattern
   width="168"
   height="168"
   patternUnits="userSpaceOnUse"
   id="New_Pattern"
   viewBox="0 -210 168 168"
   overflow="visible">
	<g
   id="g38">
		<polygon
   fill="none"
   points="0,-210 168,-210 168,-42 0,-42   "
   id="polygon2" />
		<g
   id="g8">
			<g
   opacity="0.3"
   id="g6">
				<polygon
   fill="#F2F2F2"
   points="84,0 168,0 168,-84 84,-84     "
   id="polygon4" />
			</g>
		</g>
		<g
   id="g14">
			<g
   opacity="0.3"
   id="g12">
				<polygon
   fill="#BDCCD4"
   points="0,0 84,0 84,-84 0,-84     "
   id="polygon10" />
			</g>
		</g>
		<g
   id="g24">
			<g
   opacity="0.3"
   id="g18">
				<polygon
   fill="#BDCCD4"
   points="84,-84 168,-84 168,-168 84,-168     "
   id="polygon16" />
			</g>
			<g
   opacity="0.3"
   id="g22">
				<polygon
   fill="#F2F2F2"
   points="0,-84 84,-84 84,-168 0,-168     "
   id="polygon20" />
			</g>
		</g>
		<g
   id="g30">
			<g
   opacity="0.3"
   id="g28">
				<polygon
   fill="#F2F2F2"
   points="84,-168 168,-168 168,-252 84,-252     "
   id="polygon26" />
			</g>
		</g>
		<g
   id="g36">
			<g
   opacity="0.3"
   id="g34">
				<polygon
   fill="#BDCCD4"
   points="0,-168 84,-168 84,-252 0,-252     "
   id="polygon32" />
			</g>
		</g>
	</g>
</pattern>

<g
   id="OBJECTS"
   transform="translate(-11.787568,-333.07849)">
	
		<radialGradient
   id="SVGID_3_"
   cx="1400"
   cy="2357.5139"
   r="565.83801"
   gradientTransform="matrix(1,0,0,0.19,0,1909.5862)"
   gradientUnits="userSpaceOnUse">
		<stop
   offset="5.618000e-03"
   style="stop-color:#4F7085"
   id="stop70" />
		<stop
   offset="0.69"
   style="stop-color:#B6D3E6"
   id="stop72" />
		<stop
   offset="1"
   style="stop-color:#CCE0F4;stop-opacity:0"
   id="stop74" />
	</radialGradient>
	
	
	
	
	
	
	
	
	<path
   fill="none"
   d="m 695.65268,919.08588 c 0,0 0,0 0,0 -0.0469,0 -0.0469,0 0,0 -0.0469,0 -0.0469,0 -0.0936,-0.0469 0,0 0,0 0,0.0469 0,0 -0.0469,0 -0.0469,0 0.0469,0.2341 0.0469,0.46824 0.0936,0.70234 0.0469,-0.2341 0.0469,-0.46824 0.0936,-0.70234 0,0 -0.0469,0 -0.0469,0 z"
   id="path79"
   style="stroke-width:0.468226"
   inkscape:export-xdpi="10.791829"
   inkscape:export-ydpi="10.791829" /><path
   fill="#f79548"
   d="m 695.65268,919.08588 c 0,0 0,0 0,0 0.0468,0 0.0468,0 0.0468,0 0,-0.0469 0,-0.0469 0,-0.0936 0,0.0469 -0.0468,0.0469 -0.0468,0.0936 z"
   id="path81"
   style="stroke-width:0.468226"
   inkscape:export-xdpi="10.791829"
   inkscape:export-ydpi="10.791829" /><path
   fill="#6c3f99"
   d="m 695.51222,919.08588 c 0,0 0.0469,0 0.0469,0 0,0 0,0 0,-0.0469 -0.0469,0 -0.0469,-0.0468 -0.0936,-0.0468 0.0469,0.0468 0.0469,0.0936 0.0469,0.0936 z"
   id="path83"
   style="stroke-width:0.468226"
   inkscape:export-xdpi="10.791829"
   inkscape:export-ydpi="10.791829" /><path
   fill="#ef3f6b"
   d="m 695.55904,919.08588 c 0.0469,0 0.0469,0 0,0 0.0469,0 0.0469,0 0.0469,0 0,-0.0469 0,-0.0469 -0.0469,-0.0936 0.0469,0.0469 0.0469,0.0469 0,0.0936 z"
   id="path85"
   style="stroke-width:0.468226"
   inkscape:export-xdpi="10.791829"
   inkscape:export-ydpi="10.791829" /><path
   fill="#ef3f6b"
   d="m 695.74632,918.61763 c -0.0469,0.14046 -0.0936,0.28097 -0.14046,0.37461 0,0.0469 0,0.0469 0.0468,0.0936 0.0469,0 0.0469,-0.0469 0.0936,-0.0469 0,-0.14046 0,-0.28097 0,-0.42143 z"
   id="path87"
   style="stroke-width:0.468226"
   inkscape:export-xdpi="10.791829"
   inkscape:export-ydpi="10.791829" /><path
   fill="#ef3f6b"
   d="m 695.4654,918.61763 c 0,0.14046 0.0468,0.28097 0.0468,0.42143 0.0469,0 0.0469,0.0469 0.0936,0.0469 0,-0.0469 0,-0.0469 0.0469,-0.0936 -0.0936,-0.14046 -0.14046,-0.23415 -0.18728,-0.37461 z"
   id="path89"
   style="stroke-width:0.468226"
   inkscape:export-xdpi="10.791829"
   inkscape:export-ydpi="10.791829" /><g
   id="g143"
   transform="matrix(0.46822603,0,0,0.46822603,40.089407,187.76364)"
   inkscape:export-xdpi="10.791829"
   inkscape:export-ydpi="10.791829">
		<path
   fill="none"
   d="m 1400.3,1471.5 c 0,-0.3 0.1,-0.7 0.1,-1 -0.1,0.3 -0.3,0.7 -0.4,1 -0.1,-0.3 -0.3,-0.7 -0.4,-1 0,0.3 0.1,0.7 0.1,1 0,0.1 0,0.1 0,0.2 0.1,0.6 0.2,1.2 0.2,1.7 0.1,-0.6 0.2,-1.2 0.2,-1.7 0.1,-0.1 0.2,-0.2 0.2,-0.2 z"
   id="path91" />
		<path
   fill="none"
   d="m 1400.3,1471.5 c 0,-0.3 0.1,-0.7 0.1,-1 -0.1,0.3 -0.3,0.7 -0.4,1 -0.1,-0.3 -0.3,-0.7 -0.4,-1 0,0.3 0.1,0.7 0.1,1 0,0.1 0,0.1 0,0.2 0.1,0.6 0.2,1.2 0.2,1.7 0.1,-0.6 0.2,-1.2 0.2,-1.7 0.1,-0.1 0.2,-0.2 0.2,-0.2 z"
   id="path93" />
		<path
   fill="#fabf91"
   d="m 1656.2,1082.9 c 2.1,-1.3 4.3,-2.5 6.4,-3.8 86.8,-50.1 181.7,-73.1 275.1,-71.5 39.9,-141.6 29.1,-290.5 -25.8,-422.3 -96.6,12.5 -189.7,46.7 -271.8,100.7 24,70.9 37,146.9 37,225.9 0,58.9 -7.3,116.3 -20.9,171 z"
   id="path95" />
		<path
   fill="#fabf91"
   d="m 1656.2,1082.9 c 2.1,-1.3 4.3,-2.5 6.4,-3.8 86.8,-50.1 181.7,-73.1 275.1,-71.5 39.9,-141.6 29.1,-290.5 -25.8,-422.3 -96.6,12.5 -189.7,46.7 -271.8,100.7 24,70.9 37,146.9 37,225.9 0,58.9 -7.3,116.3 -20.9,171 z"
   id="path97" />
		<path
   fill="#a78cc2"
   d="m 1137.4,1079.2 c 2.2,1.2 4.3,2.5 6.4,3.8 -13.7,-54.8 -21,-112.1 -21,-171.1 0,-79 13,-155 37,-225.9 -82.1,-53.9 -175.2,-88.2 -271.8,-100.7 -54.9,131.8 -65.7,280.8 -25.8,422.3 93.5,-1.5 188.4,21.5 275.2,71.6 z"
   id="path99" />
		<path
   fill="#a78cc2"
   d="m 1137.4,1079.2 c 2.2,1.2 4.3,2.5 6.4,3.8 -13.7,-54.8 -21,-112.1 -21,-171.1 0,-79 13,-155 37,-225.9 -82.1,-53.9 -175.2,-88.2 -271.8,-100.7 -54.9,131.8 -65.7,280.8 -25.8,422.3 93.5,-1.5 188.4,21.5 275.2,71.6 z"
   id="path101" />
		<path
   fill="#c8e2a1"
   d="m 1937.7,1007.6 c -14.2,50.5 -34.9,100 -62.3,147.5 -104.3,180.7 -283,291.6 -475.1,316.5 -0.1,0.6 -0.2,1.2 -0.2,1.7 148.3,61.8 322.8,56.3 472.7,-30.3 149.9,-86.6 242,-234.9 262.6,-394.3 -62.6,-25.9 -129.7,-40 -197.7,-41.1 z"
   id="path103" />
		<path
   fill="#c8e2a1"
   d="m 1937.7,1007.6 c -14.2,50.5 -34.9,100 -62.3,147.5 -104.3,180.7 -283,291.6 -475.1,316.5 -0.1,0.6 -0.2,1.2 -0.2,1.7 148.3,61.8 322.8,56.3 472.7,-30.3 149.9,-86.6 242,-234.9 262.6,-394.3 -62.6,-25.9 -129.7,-40 -197.7,-41.1 z"
   id="path105" />
		<path
   fill="#e4b46b"
   d="m 1662.6,1079.2 c -2.2,1.2 -4.3,2.5 -6.4,3.8 -39.2,157 -131.1,293.2 -255.9,388.5 0,0.1 0,0.1 0,0.2 192.1,-24.9 370.8,-135.8 475.1,-316.5 27.4,-47.5 48.1,-97 62.3,-147.5 -93.4,-1.6 -188.3,21.4 -275.1,71.5 z"
   id="path107" />
		<path
   fill="#e4b46b"
   d="m 1662.6,1079.2 c -2.2,1.2 -4.3,2.5 -6.4,3.8 -39.2,157 -131.1,293.2 -255.9,388.5 0,0.1 0,0.1 0,0.2 192.1,-24.9 370.8,-135.8 475.1,-316.5 27.4,-47.5 48.1,-97 62.3,-147.5 -93.4,-1.6 -188.3,21.4 -275.1,71.5 z"
   id="path109" />
		<path
   fill="#66c9e5"
   d="m 924.6,1155.1 c -27.4,-47.5 -48.1,-97 -62.3,-147.5 -68,1.1 -135.1,15.2 -197.6,41.2 20.6,159.4 112.7,307.7 262.6,394.3 149.9,86.6 324.4,92.1 472.7,30.3 -0.1,-0.6 -0.2,-1.2 -0.2,-1.7 -192.1,-24.9 -370.8,-135.9 -475.2,-316.6 z"
   id="path111" />
		<path
   fill="#66c9e5"
   d="m 924.6,1155.1 c -27.4,-47.5 -48.1,-97 -62.3,-147.5 -68,1.1 -135.1,15.2 -197.6,41.2 20.6,159.4 112.7,307.7 262.6,394.3 149.9,86.6 324.4,92.1 472.7,30.3 -0.1,-0.6 -0.2,-1.2 -0.2,-1.7 -192.1,-24.9 -370.8,-135.9 -475.2,-316.6 z"
   id="path113" />
		<path
   fill="#6a76b8"
   d="m 1399.8,1471.7 c 0,-0.1 0,-0.1 0,-0.2 C 1275,1376.1 1183.1,1240 1143.9,1083 c -2.1,-1.3 -4.3,-2.5 -6.4,-3.8 -86.8,-50.1 -181.7,-73.1 -275.1,-71.5 14.2,50.5 34.9,100 62.3,147.5 104.3,180.6 283,291.6 475.1,316.5 z"
   id="path115" />
		<path
   fill="#6a76b8"
   d="m 1399.8,1471.7 c 0,-0.1 0,-0.1 0,-0.2 C 1275,1376.1 1183.1,1240 1143.9,1083 c -2.1,-1.3 -4.3,-2.5 -6.4,-3.8 -86.8,-50.1 -181.7,-73.1 -275.1,-71.5 14.2,50.5 34.9,100 62.3,147.5 104.3,180.6 283,291.6 475.1,316.5 z"
   id="path117" />
		<path
   fill="#f58ca6"
   d="m 1363.4,901.8 c 13.9,24.1 26.1,48.8 36.6,73.9 10.5,-25.1 22.7,-49.7 36.6,-73.9 51.9,-89.9 122.2,-162.5 203.5,-215.9 -45.4,-134 -129.9,-249.8 -240.1,-334 -110.1,84.1 -194.7,200 -240.1,334 81.2,53.4 151.6,126 203.5,215.9 z"
   id="path119" />
		<path
   fill="#f58ca6"
   d="m 1363.4,901.8 c 13.9,24.1 26.1,48.8 36.6,73.9 10.5,-25.1 22.7,-49.7 36.6,-73.9 51.9,-89.9 122.2,-162.5 203.5,-215.9 -45.4,-134 -129.9,-249.8 -240.1,-334 -110.1,84.1 -194.7,200 -240.1,334 81.2,53.4 151.6,126 203.5,215.9 z"
   id="path121" />
		<path
   fill="#f3737a"
   d="m 1436.6,901.8 c -13.9,24.1 -26.1,48.8 -36.6,73.9 47.3,113.1 60,233.9 41.6,349.1 43.3,-97.6 116.1,-183.2 214.6,-241.9 13.7,-54.8 21,-112.1 21,-171.1 0,-79 -13,-155 -37,-225.9 -81.3,53.4 -151.7,126 -203.6,215.9 z"
   id="path123" />
		<path
   fill="#f3737a"
   d="m 1436.6,901.8 c -13.9,24.1 -26.1,48.8 -36.6,73.9 47.3,113.1 60,233.9 41.6,349.1 43.3,-97.6 116.1,-183.2 214.6,-241.9 13.7,-54.8 21,-112.1 21,-171.1 0,-79 -13,-155 -37,-225.9 -81.3,53.4 -151.7,126 -203.6,215.9 z"
   id="path125" />
		<path
   fill="#ea6e6b"
   d="m 1656.2,1082.9 c -98.5,58.7 -171.3,144.2 -214.6,241.9 -8,50 -21.8,98.9 -41.2,145.6 0,0.3 -0.1,0.7 -0.1,1 124.7,-95.3 216.6,-231.4 255.9,-388.5 z"
   id="path127" />
		<path
   fill="#ea6e6b"
   d="m 1656.2,1082.9 c -98.5,58.7 -171.3,144.2 -214.6,241.9 -8,50 -21.8,98.9 -41.2,145.6 0,0.3 -0.1,0.7 -0.1,1 124.7,-95.3 216.6,-231.4 255.9,-388.5 z"
   id="path129" />
		<path
   fill="#d25e8e"
   d="m 1143.8,1082.9 c 98.5,58.7 171.3,144.2 214.6,241.9 -18.4,-115.2 -5.8,-236.1 41.6,-349.1 -10.5,-25.1 -22.7,-49.7 -36.6,-73.9 -51.9,-89.9 -122.2,-162.5 -203.5,-215.9 -24,70.9 -37,146.9 -37,225.9 0,59 7.3,116.4 20.9,171.1 z"
   id="path131" />
		<path
   fill="#d25e8e"
   d="m 1143.8,1082.9 c 98.5,58.7 171.3,144.2 214.6,241.9 -18.4,-115.2 -5.8,-236.1 41.6,-349.1 -10.5,-25.1 -22.7,-49.7 -36.6,-73.9 -51.9,-89.9 -122.2,-162.5 -203.5,-215.9 -24,70.9 -37,146.9 -37,225.9 0,59 7.3,116.4 20.9,171.1 z"
   id="path133" />
		<path
   fill="#ba548a"
   d="m 1358.5,1325 c 0.8,1.7 1.5,3.4 2.2,5 -0.8,-1.7 -1.5,-3.5 -2.3,-5.2 -43.3,-97.6 -116.1,-183.2 -214.6,-241.9 39.2,157 131.1,293.2 255.9,388.5 0,-0.3 -0.1,-0.7 -0.1,-1 -0.1,-1 -0.3,-2 -0.4,-3 -19,-45.7 -32.7,-93.5 -40.7,-142.4 z"
   id="path135" />
		<path
   fill="#ba548a"
   d="m 1358.5,1325 c 0.8,1.7 1.5,3.4 2.2,5 -0.8,-1.7 -1.5,-3.5 -2.3,-5.2 -43.3,-97.6 -116.1,-183.2 -214.6,-241.9 39.2,157 131.1,293.2 255.9,388.5 0,-0.3 -0.1,-0.7 -0.1,-1 -0.1,-1 -0.3,-2 -0.4,-3 -19,-45.7 -32.7,-93.5 -40.7,-142.4 z"
   id="path137" />
		<path
   fill="#d1537c"
   d="m 1400,975.7 c -47.3,113.1 -60,233.9 -41.6,349.1 0.8,1.7 1.5,3.5 2.3,5.2 -0.7,-1.7 -1.5,-3.4 -2.2,-5 8.1,48.8 21.7,96.6 40.7,142.4 0.1,1 0.3,2 0.4,3 0.1,0.3 0.3,0.7 0.4,1 0.1,-0.3 0.3,-0.7 0.4,-1 19.4,-46.8 33.2,-95.7 41.2,-145.6 18.4,-115.2 5.7,-236 -41.6,-349.1 z"
   id="path139" />
		<path
   fill="#d1537c"
   d="m 1400,975.7 c -47.3,113.1 -60,233.9 -41.6,349.1 0.8,1.7 1.5,3.5 2.3,5.2 -0.7,-1.7 -1.5,-3.4 -2.2,-5 8.1,48.8 21.7,96.6 40.7,142.4 0.1,1 0.3,2 0.4,3 0.1,0.3 0.3,0.7 0.4,1 0.1,-0.3 0.3,-0.7 0.4,-1 19.4,-46.8 33.2,-95.7 41.2,-145.6 18.4,-115.2 5.7,-236 -41.6,-349.1 z"
   id="path141" />
	</g><g
   id="g167"
   transform="matrix(1.06306,0,0,1.06306,-52.382014,-22.190823)">
		<g
   id="g149"
   transform="matrix(0.44045118,0,0,0.44045118,86.986078,197.5001)"
   inkscape:export-xdpi="10.791829"
   inkscape:export-ydpi="10.791829">
			<path
   fill="#fabf91"
   d="m 900.4,1604.4 c -15.4,0 -29.5,7 -38.9,19.2 -9.3,12.2 -12.3,27.6 -8.3,42.4 14.3,52.2 31.9,99.8 52.7,142.2 12,8.8 24.6,16.5 37.9,22.9 12.7,6.2 26,11 39.6,14.3 0.7,0.2 1.3,0.3 2,0.5 7.5,0.8 15,1.7 22.5,2.6 -35.8,-78.7 -52,-152.7 -59.3,-202.3 -3.4,-23.8 -24.2,-41.8 -48.2,-41.8 z"
   id="path145" />
			<path
   fill="#fabf91"
   d="m 1938.5,1623.6 c -9.3,-12.2 -23.5,-19.2 -38.9,-19.2 -24,0 -44.8,18 -48.3,41.8 -7.3,49.6 -23.5,123.6 -59.3,202.3 7.5,-0.9 15,-1.8 22.5,-2.6 0.7,-0.2 1.3,-0.3 2,-0.5 13.6,-3.3 26.9,-8.1 39.6,-14.3 13.3,-6.4 25.9,-14.2 37.9,-22.9 20.8,-42.4 38.4,-90.1 52.7,-142.2 4.1,-14.7 1.1,-30.2 -8.2,-42.4 z"
   id="path147" />
		</g>
		<g
   id="g155"
   transform="matrix(0.44045118,0,0,0.44045118,86.986078,197.5001)"
   inkscape:export-xdpi="10.791829"
   inkscape:export-ydpi="10.791829">
			<path
   fill="#66c9e5"
   d="m 807.7,1548.9 c -3.6,-23.9 -24.5,-42 -48.7,-42 -14.7,0 -28.5,6.5 -37.9,17.8 -9.4,11.3 -13.2,26.1 -10.5,40.5 4.6,24.7 11.3,53.4 20.9,84.2 0.5,0 1,0 1.5,0.1 5.1,0.4 9.8,1.9 13.9,3.8 8.3,3.8 14.8,8.8 20.9,14 6,5.2 11.5,10.7 16.7,16.3 5.2,5.6 10.3,11.2 15.2,16.9 l 14.6,17 c 9.6,11.3 19.3,22.5 29.2,33.3 8.5,9.2 17.1,18.2 26.1,26.8 -27.6,-66.2 -44.1,-132.1 -53.7,-181.4 -3.1,-15.9 -5.9,-31.8 -8.2,-47.3 z"
   id="path151" />
			<path
   fill="#66c9e5"
   d="m 2078.8,1524.7 c -9.4,-11.3 -23.2,-17.8 -37.9,-17.8 -24.2,0 -45.1,18 -48.7,42 -2.3,15.6 -5,31.5 -8.1,47.2 -9.6,49.3 -26.2,115.1 -53.7,181.4 9,-8.6 17.6,-17.6 26.1,-26.8 9.9,-10.8 19.5,-22 29.2,-33.3 l 14.6,-17 c 4.9,-5.6 10,-11.3 15.2,-16.9 5.3,-5.6 10.7,-11.1 16.7,-16.3 6.1,-5.2 12.6,-10.3 20.9,-14 4.1,-1.8 8.8,-3.3 13.9,-3.8 0.5,0 1,-0.1 1.5,-0.1 9.6,-30.8 16.2,-59.5 20.9,-84.2 2.6,-14.4 -1.2,-29.1 -10.6,-40.4 z"
   id="path153" />
		</g>
		<g
   id="g161"
   transform="matrix(0.44045118,0,0,0.44045118,86.986078,197.5001)"
   inkscape:export-xdpi="10.791829"
   inkscape:export-ydpi="10.791829">
			<path
   fill="#a78cc2"
   d="m 680.3,1497.6 v 0 c 0,0 0,0 0,0 l -0.1,-1.2 c -3,-31.1 -28.9,-54.6 -60.2,-54.6 -17.9,0 -32.5,14.6 -32.5,32.5 v 2.1 c 0,0.5 -1.6,47 15.7,106.7 11.2,38.6 32.1,88.5 71.1,135 0,-2.8 0.1,-5.6 0.3,-8.5 0.7,-8.2 2.4,-16.4 5.8,-24.3 3.4,-7.9 8.5,-15.3 15.1,-21.2 4.7,-4.2 10.1,-7.6 15.8,-10.1 -0.5,-1.5 -0.9,-2.9 -1.4,-4.4 -18,-60.5 -26,-116 -29.6,-152 z"
   id="path157" />
			<path
   fill="#a78cc2"
   d="m 2212.5,1476.4 v -2.1 c 0,-17.9 -14.6,-32.5 -32.5,-32.5 -31.3,0 -57.1,23.5 -60.2,54.6 l -0.1,1.2 c 0,0 0,0 0,0 v 0 c -3.5,35.9 -11.6,91.5 -29.8,152 -0.4,1.5 -0.9,2.9 -1.4,4.4 5.7,2.5 11.1,5.9 15.8,10.1 6.6,5.9 11.7,13.3 15.1,21.2 3.4,7.9 5.2,16.2 5.8,24.3 0.2,2.8 0.3,5.7 0.3,8.5 39,-46.5 60,-96.4 71.1,-135 17.4,-59.7 15.9,-106.2 15.9,-106.7 z"
   id="path159" />
		</g>
		<path
   fill="#f58ca6"
   d="m 813.59841,950.05498 c 0,71.17682 -83.55362,80.42632 -109.98068,142.39772 -26.38303,-61.9714 -109.98066,-71.1769 -109.98066,-142.39772 0,-31.31608 25.36998,-56.68606 56.68607,-56.68606 24.48908,0 45.36646,15.54792 53.29459,37.35026 7.92812,-21.75829 28.76146,-37.35026 53.29459,-37.35026 31.31611,0 56.68609,25.41402 56.68609,56.68606 z"
   id="path163"
   style="stroke-width:0.440451"
   inkscape:export-xdpi="10.791829"
   inkscape:export-ydpi="10.791829" />
		<path
   fill="#c8e2a1"
   d="m 1100.1999,858.00068 c -3.3914,-3.78788 -8.1042,-5.90204 -13.2576,-5.90204 -8.9411,0 -16.5609,6.7389 -17.662,15.68006 -3.0391,24.57717 -13.4778,67.82948 -48.9341,102.93339 -0.044,0.17617 -0.088,0.35235 -0.1321,0.48452 -2.1583,6.51867 -5.1534,12.68499 -8.8091,18.36678 -3.6557,5.68189 -7.84,10.96721 -12.46478,15.76811 l -13.60995,14.1826 c -9.07331,9.4696 -18.10252,18.9394 -27.08773,28.4972 v 0 c 0.0886,-0.089 0.13217,-0.1762 0.22026,-0.2644 1.58558,-2.0701 3.21525,-4.1842 4.80092,-6.2544 3.21524,-4.0961 6.47458,-8.1483 9.778,-12.2004 0.30826,-0.3965 0.61661,-0.7488 0.92497,-1.1012 2.95098,-3.6117 5.94605,-7.2674 8.94112,-10.8791 l 12.64099,-15.0634 c 4.18421,-4.88902 7.8841,-10.08628 11.0112,-15.63599 0.3524,-0.61661 0.7047,-1.23332 1.0131,-1.84993 0.088,-0.22017 0.2202,-0.39635 0.3083,-0.61661 0.2202,-0.44044 0.4405,-0.88088 0.6606,-1.32132 0.1322,-0.22026 0.2203,-0.44044 0.3524,-0.6607 0.2643,-0.52853 0.5286,-1.05705 0.7488,-1.58567 0.044,-0.13209 0.1322,-0.22018 0.1762,-0.35235 v 0 c 1.6296,-3.5676 3.0391,-7.22337 4.0962,-10.96724 1.6737,-5.99014 2.4665,-12.20043 1.7618,-18.05839 -0.3524,-2.90702 -1.0571,-5.72591 -2.2464,-8.23648 -1.1892,-2.51057 -2.8189,-4.71283 -4.889,-6.38655 -2.026,-1.71775 -4.4925,-2.90697 -7.1352,-3.65574 l -1.0131,-0.26427 c -0.2643,-0.0441 -0.48451,-0.0881 -0.74878,-0.13214 -0.48443,-0.044 -0.96896,-0.044 -1.49749,0 -1.01305,0.13214 -2.11419,0.4845 -3.30342,1.01304 -2.29028,1.10113 -4.66874,2.95102 -6.91502,4.9771 -2.24637,2.02607 -4.40457,4.31642 -6.56276,6.69486 -2.11419,2.37844 -4.2283,4.84496 -6.2984,7.31149 l -6.25441,7.5317 c -4.1843,5.06517 -8.41269,10.13035 -12.86125,15.10744 -4.40448,4.97709 -9.07331,9.778 -13.96231,14.40274 -4.889,4.62474 -10.08626,8.98522 -15.63597,12.94921 -5.5497,3.9642 -11.40767,7.5317 -17.66207,10.4387 -5.32944,2.5106 -10.92324,4.5367 -16.69312,6.0342 0,0 0,0 0,0 -0.26426,0.088 -0.57261,0.1321 -0.83688,0.2202 -0.6607,0.1762 -1.3654,0.3084 -2.0261,0.4845 -0.79279,0.1762 -1.54158,0.3084 -2.33437,0.4846 -0.57252,0.089 -1.10114,0.2201 -1.67367,0.3082 -0.17617,0.044 -0.39644,0.089 -0.57261,0.089 -0.7047,0.1322 -1.4094,0.2202 -2.1142,0.3083 -0.0443,0 -0.0443,0 -0.0876,0 -0.7487,0.088 -1.49749,0.2202 -2.24628,0.2643 -0.39644,0.044 -0.79279,0.088 -1.18923,0.1321 -3.34743,0.3083 -6.65076,0.4405 -9.99827,0.4405 -33.29805,4.5807 -66.99263,12.9052 -99.2336,39.3323 -35.32419,28.9817 -51.4447,63.5571 -58.71215,87.4295 -6.60677,21.6262 -7.39957,38.6717 -7.44363,43.913 -0.0881,-5.2413 -0.83685,-22.2868 -7.44361,-43.913 -7.26746,-23.8724 -23.38797,-58.4478 -58.71215,-87.4295 -32.24102,-26.4271 -65.93554,-34.7956 -99.23365,-39.3323 -3.34743,0.044 -6.69486,-0.088 -9.99824,-0.4405 -0.3964,-0.044 -0.79282,-0.088 -1.18922,-0.1321 -0.74876,-0.089 -1.49754,-0.1762 -2.2463,-0.2643 -0.044,0 -0.044,0 -0.0881,0 -0.70473,-0.088 -1.40945,-0.2202 -2.11417,-0.3083 -0.17618,-0.044 -0.3964,-0.089 -0.57258,-0.089 -0.57259,-0.088 -1.10114,-0.1761 -1.67371,-0.3082 -0.79282,-0.1322 -1.54158,-0.3084 -2.3344,-0.4846 -0.66068,-0.1321 -1.3654,-0.3083 -2.02607,-0.4845 -0.26427,-0.088 -0.57259,-0.1321 -0.83686,-0.2202 0,0 0,0 0,0 -5.76992,-1.4534 -11.31959,-3.5236 -16.69311,-6.0342 -6.2544,-2.907 -12.11239,-6.5186 -17.66208,-10.4387 -5.54969,-3.96399 -10.70297,-8.32447 -15.63602,-12.94921 -4.88901,-4.62474 -9.55779,-9.42565 -13.9623,-14.40274 -4.40451,-4.97709 -8.67689,-10.04227 -12.86117,-15.10744 l -6.25442,-7.5317 c -2.07011,-2.51058 -4.18428,-4.93305 -6.29845,-7.31149 -2.11416,-2.37844 -4.31642,-4.66879 -6.56272,-6.69486 -2.2463,-2.02608 -4.58069,-3.87597 -6.91508,-4.9771 -1.14518,-0.52854 -2.2463,-0.92494 -3.30339,-1.01304 -0.52853,-0.044 -1.01304,-0.044 -1.49753,0 -0.26427,0.0441 -0.44045,0.0881 -0.74877,0.13214 l -1.01303,0.26427 c -2.68676,0.74877 -5.10923,1.98203 -7.13531,3.65574 -2.07013,1.67372 -3.6998,3.87598 -4.88902,6.38655 -1.18921,2.51057 -1.89393,5.32946 -2.24629,8.23648 -0.66068,5.85796 0.0881,12.06825 1.7618,18.05839 1.05708,3.74387 2.42249,7.39964 4.0962,10.96724 v 0 c 0.044,0.13217 0.13213,0.26426 0.17618,0.35235 0.26427,0.52862 0.48449,1.05714 0.74877,1.58567 0.0881,0.22026 0.22022,0.44044 0.35236,0.6607 0.22022,0.44044 0.44045,0.88088 0.66067,1.32132 0.0881,0.22026 0.22023,0.39644 0.30832,0.61661 0.35236,0.61661 0.66067,1.23332 1.01303,1.84993 3.12722,5.54971 6.827,10.74697 11.01129,15.63599 l 12.64094,15.0634 c 2.99507,3.6117 5.94609,7.2234 8.94116,10.8791 0.30832,0.3524 0.61664,0.7488 0.92495,1.1012 3.30339,4.0521 6.56272,8.1043 9.77801,12.2004 1.62968,2.0702 3.2153,4.1403 4.80093,6.2544 0.0881,0.089 0.13213,0.1763 0.22022,0.2644 v 0 c -8.9852,-9.5578 -18.01445,-19.0716 -27.08774,-28.4972 l -13.60995,-14.1826 c -4.62474,-4.8449 -8.85306,-10.08622 -12.46477,-15.76811 -3.65574,-5.68179 -6.6508,-11.80402 -8.80902,-18.36678 -0.0441,-0.17617 -0.0881,-0.35235 -0.13214,-0.48452 -35.41227,-35.05987 -45.89501,-78.31217 -48.93412,-102.93339 -1.10113,-8.94116 -8.67688,-15.68006 -17.66209,-15.68006 -5.15328,0 -9.82207,2.07012 -13.25758,5.90204 -3.39148,3.74384 -5.02115,8.80903 -4.44856,13.83017 22.02256,206.04295 194.01874,361.78655 401.03079,364.03285 207.01203,-2.2463 379.00819,-157.9899 401.03079,-364.03285 0.7047,-5.02114 -0.925,-10.04229 -4.2724,-13.83017 z"
   id="path165"
   style="fill:#ff7f2a;stroke-width:0.440451"
   inkscape:export-xdpi="10.791829"
   inkscape:export-ydpi="10.791829" />
	<text
   xml:space="preserve"
   id="text178"
   style="font-size:74.6667px;line-height:1.25;font-family:sans-serif;letter-spacing:0px;white-space:pre;shape-inside:url(#rect180);" /><path
   d="m 1278.1252,761.98827 q 15.7925,0 25.8426,-2.39146 10.5291,-2.86953 16.7504,-7.17382 6.2213,-4.78235 8.6143,-10.99948 2.3932,-6.21768 2.3932,-13.86957 0,-16.26045 -15.3147,-26.78244 -15.3146,-10.99947 -52.6431,-23.43427 -16.272,-5.73905 -32.5435,-12.91288 -16.2714,-7.65188 -29.193,-18.65192 -12.9216,-11.47811 -21.0577,-27.26051 -8.136,-16.26046 -8.136,-39.21667 0,-22.95623 8.6145,-41.13008 8.6144,-18.65192 24.4075,-31.5648 15.7929,-12.91287 38.2863,-19.60862 22.4933,-7.17381 50.729,-7.17381 33.5002,0 57.9077,7.17381 24.4074,7.17382 40.2005,15.7824 l -21.5359,58.8253 q -13.8785,-7.17381 -31.1073,-12.43424 -16.7503,-5.73905 -40.6794,-5.73905 -26.7999,0 -38.7642,7.65188 -11.4859,7.17382 -11.4859,22.47814 0,9.08666 4.3072,15.30377 4.3072,6.2177 11.9643,11.47811 8.136,4.78292 18.186,9.08721 10.5286,3.82567 22.9713,8.12996 25.8431,9.56527 44.9866,19.13054 19.143,9.08666 31.5862,21.52147 12.9215,12.43424 19.1428,29.17334 6.2214,16.73908 6.2214,40.65144 0,46.39106 -32.5429,72.21679 -32.5435,25.34712 -98.1082,25.34712 -22.0149,0 -39.7222,-2.86952 -17.7071,-2.39091 -31.586,-6.21713 -13.4,-3.82622 -23.4502,-8.13051 -9.5717,-4.30429 -16.272,-8.12996 l 21.0576,-59.30393 q 14.8358,8.13052 36.3717,14.82627 22.0149,6.21712 53.6011,6.21712 z"
   style="font-style:normal;font-variant:normal;font-weight:bold;font-stretch:normal;font-size:85.3333px;line-height:0.95;font-family:Ubuntu;-inkscape-font-specification:'Ubuntu Bold';text-align:center;letter-spacing:-2.14267px;word-spacing:-2.18021px;text-anchor:middle;white-space:pre;fill:#ff7f2a;stroke-width:5.60644;fill-opacity:1"
   id="path197"
   inkscape:export-xdpi="10.791829"
   inkscape:export-ydpi="10.791829" /><path
   d="M 1454.2038,818.90074 V 487.47038 h 223.9742 v 62.65097 h -149.3162 v 65.04297 h 132.5663 v 61.21621 h -132.5663 v 79.86869 h 160.3237 v 62.65152 z"
   style="font-style:normal;font-variant:normal;font-weight:bold;font-stretch:normal;font-size:85.3333px;line-height:0.95;font-family:Ubuntu;-inkscape-font-specification:'Ubuntu Bold';text-align:center;letter-spacing:-2.14267px;word-spacing:-2.18021px;text-anchor:middle;white-space:pre;fill:#ff7f2a;stroke-width:5.60644;fill-opacity:1"
   id="path199"
   inkscape:export-xdpi="10.791829"
   inkscape:export-ydpi="10.791829" /><path
   d="m 1836.1461,818.90074 q -19.6218,-41.60814 -38.7648,-86.56444 -19.1435,-44.95572 -36.3722,-88.95533 -17.2288,-43.99904 -32.0646,-84.17241 -14.3572,-40.17339 -24.8858,-71.73818 h 82.3151 q 9.5717,28.69527 20.5787,62.17289 11.4859,32.99957 22.9718,65.99913 11.9648,32.99955 22.9716,63.12959 11.0075,30.13004 20.5792,52.12955 9.0929,-21.99951 20.1003,-52.12955 11.4859,-30.13004 22.9717,-63.12959 11.9643,-32.99956 22.9717,-65.99913 11.4859,-33.47762 21.057,-62.17289 h 79.4443 q -11.0075,31.56479 -25.3647,71.73818 -14.3574,40.17337 -31.5862,84.17241 -17.2288,43.99961 -36.3717,88.95533 -19.1435,44.9563 -38.7647,86.56444 z"
   style="font-style:normal;font-variant:normal;font-weight:bold;font-stretch:normal;font-size:85.3333px;line-height:0.95;font-family:Ubuntu;-inkscape-font-specification:'Ubuntu Bold';text-align:center;letter-spacing:-2.14267px;word-spacing:-2.18021px;text-anchor:middle;white-space:pre;fill:#ff7f2a;stroke-width:5.60644;fill-opacity:1"
   id="path201"
   inkscape:export-xdpi="10.791829"
   inkscape:export-ydpi="10.791829" /><path
   d="m 2262.603,818.90074 q -5.264,-17.21716 -11.9643,-35.39102 -6.2214,-18.17385 -12.4432,-36.34716 h -129.216 q -6.2213,18.17331 -12.9209,36.34716 -6.2219,18.17386 -11.4859,35.39102 h -77.5296 q 18.6645,-53.56487 35.4143,-98.99868 16.7504,-45.43436 32.5435,-85.60774 16.2715,-40.17337 31.5862,-76.04246 15.793,-36.34715 32.5429,-70.78148 h 71.3082 q 16.2714,34.43433 32.0645,70.78148 15.7931,35.86909 31.586,76.04246 16.272,40.17338 33.022,85.60774 16.7504,45.43381 35.4148,98.99868 z m -89.4939,-256.34459 q -2.3931,7.17381 -7.1787,19.60862 -4.7855,12.43424 -11.0075,28.69527 -6.2212,16.26046 -13.8783,35.86908 -7.1786,19.60807 -14.8362,41.12952 h 94.2798 q -7.6569,-21.52145 -14.8356,-41.12952 -7.1787,-19.60862 -13.8789,-35.86908 -6.2214,-16.26103 -11.0075,-28.69527 -4.7856,-12.43481 -7.6571,-19.60862 z"
   style="font-style:normal;font-variant:normal;font-weight:bold;font-stretch:normal;font-size:85.3333px;line-height:0.95;font-family:Ubuntu;-inkscape-font-specification:'Ubuntu Bold';text-align:center;letter-spacing:-2.14267px;word-spacing:-2.18021px;text-anchor:middle;white-space:pre;fill:#ff7f2a;stroke-width:5.60644;fill-opacity:1"
   id="path203"
   inkscape:export-xdpi="10.791829"
   inkscape:export-ydpi="10.791829" /><path
   d="m 2595.9772,818.90074 q -32.0651,-56.91247 -69.3941,-112.39017 -37.329,-55.47716 -79.4438,-104.73774 v 217.12791 h -73.7006 V 487.47038 h 60.7792 q 15.7929,15.7824 34.9359,38.73862 19.1435,22.95621 38.7647,49.26002 20.1003,25.82574 39.7222,54.04294 19.6219,27.73858 36.8506,53.56432 v -195.6059 h 74.1792 v 331.43036 z"
   style="font-style:normal;font-variant:normal;font-weight:bold;font-stretch:normal;font-size:85.3333px;line-height:0.95;font-family:Ubuntu;-inkscape-font-specification:'Ubuntu Bold';text-align:center;letter-spacing:-2.14267px;word-spacing:-2.18021px;text-anchor:middle;white-space:pre;fill:#ff7f2a;stroke-width:5.60644;fill-opacity:1"
   id="path205"
   inkscape:export-xdpi="10.791829"
   inkscape:export-ydpi="10.791829" /><path
   d="m 2904.5397,707.46725 q 0,24.39099 -5.743,45.91244 -5.2645,21.52145 -19.143,37.78192 -13.4005,15.7824 -36.8505,25.34767 -22.9718,9.08665 -58.3867,9.08665 -32.543,0 -55.993,-7.65189 -23.4507,-8.13051 -38.7647,-18.65192 l 24.8857,-57.86861 q 13.879,8.12996 29.6721,14.34764 15.7929,6.21712 34.457,6.21712 27.2788,0 39.2436,-13.39094 11.9643,-13.3915 11.9643,-44.9563 V 487.47038 h 74.6582 z"
   style="font-style:normal;font-variant:normal;font-weight:bold;font-stretch:normal;font-size:85.3333px;line-height:0.95;font-family:Ubuntu;-inkscape-font-specification:'Ubuntu Bold';text-align:center;letter-spacing:-2.14267px;word-spacing:-2.18021px;text-anchor:middle;white-space:pre;fill:#ff7f2a;stroke-width:5.60644;fill-opacity:1"
   id="path207"
   inkscape:export-xdpi="10.791829"
   inkscape:export-ydpi="10.791829" /><path
   d="m 3177.1639,818.90074 q -5.264,-17.21716 -11.9642,-35.39102 -6.2214,-18.17385 -12.4433,-36.34716 h -129.2159 q -6.2214,18.17331 -12.9216,36.34716 -6.2212,18.17386 -11.4853,35.39102 h -77.5296 q 18.6646,-53.56487 35.4144,-98.99868 16.7504,-45.43436 32.5435,-85.60774 16.2715,-40.17337 31.586,-76.04246 15.7931,-36.34715 32.543,-70.78148 h 71.3083 q 16.2714,34.43433 32.0644,70.78148 15.7931,35.86909 31.5861,76.04246 16.272,40.17338 33.0219,85.60774 16.7504,45.43381 35.4149,98.99868 z m -89.4938,-256.34459 q -2.3931,7.17381 -7.1787,19.60862 -4.7855,12.43424 -11.0075,28.69527 -6.2212,16.26046 -13.8783,35.86908 -7.1787,19.60807 -14.8363,41.12952 h 94.2799 q -7.657,-21.52145 -14.8356,-41.12952 -7.1787,-19.60862 -13.879,-35.86908 -6.2213,-16.26103 -11.0075,-28.69527 -4.7856,-12.43481 -7.657,-19.60862 z"
   style="font-style:normal;font-variant:normal;font-weight:bold;font-stretch:normal;font-size:85.3333px;line-height:0.95;font-family:Ubuntu;-inkscape-font-specification:'Ubuntu Bold';text-align:center;letter-spacing:-2.14267px;word-spacing:-2.18021px;text-anchor:middle;white-space:pre;fill:#ff7f2a;stroke-width:5.60644;fill-opacity:1"
   id="path209"
   inkscape:export-xdpi="10.791829"
   inkscape:export-ydpi="10.791829" /><path
   d="m 3509.5808,754.81445 v 64.08629 H 3287.9996 V 487.47038 h 74.658 v 267.34407 z"
   style="font-style:normal;font-variant:normal;font-weight:bold;font-stretch:normal;font-size:85.3333px;line-height:0.95;font-family:Ubuntu;-inkscape-font-specification:'Ubuntu Bold';text-align:center;letter-spacing:-2.14267px;word-spacing:-2.18021px;text-anchor:middle;white-space:pre;fill:#ff7f2a;stroke-width:5.60644;fill-opacity:1"
   id="path211"
   inkscape:export-xdpi="10.791829"
   inkscape:export-ydpi="10.791829" /><path
   d="m 3545.1824,487.47038 h 74.6581 v 331.43036 h -74.6581 z"
   style="font-style:normal;font-variant:normal;font-weight:bold;font-stretch:normal;font-size:85.3333px;line-height:0.95;font-family:Ubuntu;-inkscape-font-specification:'Ubuntu Bold';text-align:center;letter-spacing:-2.14267px;word-spacing:-2.18021px;text-anchor:middle;white-space:pre;fill:#ff7f2a;stroke-width:5.60644;fill-opacity:1"
   id="path213"
   inkscape:export-xdpi="10.791829"
   inkscape:export-ydpi="10.791829" /><path
   d="M 1168.0428,1144.0467 V 869.38723 h 184.0234 v 51.91945 h -122.1535 v 57.46874 h 108.6692 v 51.91938 h -108.6692 v 113.3519 z"
   style="font-style:normal;font-variant:normal;font-weight:bold;font-stretch:normal;font-size:85.3333px;line-height:0.95;font-family:Ubuntu;-inkscape-font-specification:'Ubuntu Bold';letter-spacing:-2.14267px;word-spacing:-2.18021px;white-space:pre;fill:#112b00;stroke-width:4.64611"
   id="path215"
   inkscape:export-xdpi="10.791829"
   inkscape:export-ydpi="10.791829" /><path
   d="m 1434.6772,1006.5186 q 0,20.2131 4.7593,36.4629 5.1556,16.2495 14.2776,28.1395 9.518,11.4938 23.0028,17.8349 13.4842,6.3417 30.9349,6.3417 17.0537,0 30.538,-6.3417 13.8812,-6.3411 23.0032,-17.8349 9.5185,-11.89 14.2777,-28.1395 5.1556,-16.2498 5.1556,-36.4629 0,-20.21299 -5.1556,-36.46284 -4.7592,-16.64603 -14.2777,-28.1394 -9.122,-11.89002 -23.0032,-18.23168 -13.4843,-6.34119 -30.538,-6.34119 -17.4507,0 -30.9349,6.73784 -13.4848,6.34118 -23.0028,18.2312 -9.122,11.49384 -14.2776,28.13987 -4.7593,16.24939 -4.7593,36.0662 z m 209.8021,0 q 0,35.2739 -10.7083,62.2243 -10.3117,26.5547 -28.5552,44.7859 -18.244,17.835 -43.6263,26.9509 -24.986,9.1154 -53.9377,9.1154 -28.1589,0 -53.1448,-9.1154 -24.9859,-9.1159 -43.6259,-26.9509 -18.6405,-18.2312 -29.3486,-44.7859 -10.7083,-26.9504 -10.7083,-62.2243 0,-35.27384 11.1047,-61.82806 11.1052,-26.95087 29.7451,-45.18208 19.0369,-18.23121 43.6263,-27.34705 24.986,-9.11537 52.3515,-9.11537 28.1584,0 53.1443,9.11537 24.9859,9.11584 43.6263,27.34705 18.6405,18.23121 29.3486,45.18208 10.7083,26.55422 10.7083,61.82806 z"
   style="font-style:normal;font-variant:normal;font-weight:bold;font-stretch:normal;font-size:85.3333px;line-height:0.95;font-family:Ubuntu;-inkscape-font-specification:'Ubuntu Bold';letter-spacing:-2.14267px;word-spacing:-2.18021px;white-space:pre;fill:#112b00;stroke-width:4.64611"
   id="path217"
   inkscape:export-xdpi="10.791829"
   inkscape:export-ydpi="10.791829" /><path
   d="m 1793.1859,1149.5951 q -28.9517,0 -49.9714,-7.9264 -21.02,-8.323 -34.9012,-22.591 -13.4843,-14.6647 -20.2267,-34.4811 -6.3454,-20.213 -6.3454,-44.3897 V 869.38723 h 61.8698 v 165.66747 q 0,16.6461 3.5694,28.5361 3.9659,11.4938 10.3118,19.024 6.742,7.134 15.864,10.3048 9.5183,3.1704 20.6231,3.1704 22.6063,0 36.4874,-13.8714 14.2777,-13.8718 14.2777,-47.1639 V 869.38723 h 61.8699 v 170.81967 q 0,24.1767 -6.7424,44.3897 -6.7424,20.213 -20.6232,34.8772 -13.8811,14.2681 -35.2976,22.1949 -21.4165,7.9264 -50.7652,7.9264 z"
   style="font-style:normal;font-variant:normal;font-weight:bold;font-stretch:normal;font-size:85.3333px;line-height:0.95;font-family:Ubuntu;-inkscape-font-specification:'Ubuntu Bold';letter-spacing:-2.14267px;word-spacing:-2.18021px;white-space:pre;fill:#112b00;stroke-width:4.64611"
   id="path219"
   inkscape:export-xdpi="10.791829"
   inkscape:export-ydpi="10.791829" /><path
   d="m 2140.5778,1144.0467 q -26.5721,-47.1639 -57.5071,-93.1388 -30.9349,-45.9744 -65.8357,-86.79714 v 179.93594 h -61.0765 V 869.38723 h 50.3683 q 13.0878,13.07902 28.9517,32.10305 15.8644,19.02404 32.1248,40.82225 16.6572,21.40204 32.918,44.7859 16.2605,22.98727 30.5381,44.38927 V 869.38723 h 61.4734 v 274.65947 z"
   style="font-style:normal;font-variant:normal;font-weight:bold;font-stretch:normal;font-size:85.3333px;line-height:0.95;font-family:Ubuntu;-inkscape-font-specification:'Ubuntu Bold';letter-spacing:-2.14267px;word-spacing:-2.18021px;white-space:pre;fill:#112b00;stroke-width:4.64611"
   id="path221"
   inkscape:export-xdpi="10.791829"
   inkscape:export-ydpi="10.791829" /><path
   d="m 2307.8449,1093.712 q 4.3623,0.3947 9.9149,0.7928 5.949,0 13.8812,0 46.4019,0 68.6118,-23.3838 22.6063,-23.3835 22.6063,-64.6024 0,-43.20021 -21.4165,-65.39507 -21.4166,-22.19486 -67.819,-22.19486 -6.3453,0 -13.0877,0.39479 -6.742,0 -12.691,0.79236 z m 178.8671,-87.1934 q 0,35.6701 -11.1051,62.2243 -11.1046,26.5547 -31.7278,43.9931 -20.2266,17.4389 -49.5754,26.158 -29.3482,8.7197 -65.8356,8.7197 -16.6573,0 -38.8672,-1.5856 -22.2094,-1.1891 -43.6259,-5.5484 V 872.95424 q 21.4165,-3.96319 44.4192,-5.15219 23.3997,-1.58564 40.057,-1.58564 35.2973,0 63.8525,7.92683 28.9518,7.92637 49.5754,24.96904 20.6232,17.04221 31.7278,43.59644 11.1051,26.55468 11.1051,63.80988 z"
   style="font-style:normal;font-variant:normal;font-weight:bold;font-stretch:normal;font-size:85.3333px;line-height:0.95;font-family:Ubuntu;-inkscape-font-specification:'Ubuntu Bold';letter-spacing:-2.14267px;word-spacing:-2.18021px;white-space:pre;fill:#112b00;stroke-width:4.64611"
   id="path223"
   inkscape:export-xdpi="10.791829"
   inkscape:export-ydpi="10.791829" /><path
   d="m 2701.9985,1144.0467 q -4.3628,-14.2681 -9.9149,-29.3289 -5.1561,-15.0608 -10.3118,-30.1212 h -107.0825 q -5.1557,15.0604 -10.7083,30.1212 -5.1555,15.0608 -9.5183,29.3289 h -64.2495 q 15.4675,-44.3897 29.3486,-82.0411 13.8808,-37.6519 26.9687,-70.94398 13.4848,-33.29206 26.1756,-63.01711 13.0879,-30.12123 26.9692,-58.65728 h 59.0938 q 13.4842,28.53605 26.5721,58.65728 13.0879,29.72505 26.1757,63.01711 13.4843,33.29208 27.3655,70.94398 13.8807,37.6514 29.3482,82.0411 z m -74.1644,-212.43518 q -1.9832,5.94501 -5.9491,16.24985 -3.9663,10.30437 -9.122,23.78003 -5.1555,13.47521 -11.5015,29.7251 -5.949,16.2494 -12.2945,34.0844 h 78.1306 q -6.3459,-17.835 -12.2949,-34.0844 -5.949,-16.24989 -11.5011,-29.7251 -5.1561,-13.47566 -9.122,-23.78003 -3.9659,-10.30484 -6.3455,-16.24985 z"
   style="font-style:normal;font-variant:normal;font-weight:bold;font-stretch:normal;font-size:85.3333px;line-height:0.95;font-family:Ubuntu;-inkscape-font-specification:'Ubuntu Bold';letter-spacing:-2.14267px;word-spacing:-2.18021px;white-space:pre;fill:#112b00;stroke-width:4.64611"
   id="path225"
   inkscape:export-xdpi="10.791829"
   inkscape:export-ydpi="10.791829" /><path
   d="m 2965.168,869.38723 v 52.71226 h -82.8894 v 221.94721 h -61.8699 V 922.09949 h -82.8899 v -52.71226 z"
   style="font-style:normal;font-variant:normal;font-weight:bold;font-stretch:normal;font-size:85.3333px;line-height:0.95;font-family:Ubuntu;-inkscape-font-specification:'Ubuntu Bold';letter-spacing:-2.14267px;word-spacing:-2.18021px;white-space:pre;fill:#112b00;stroke-width:4.64611"
   id="path227"
   inkscape:export-xdpi="10.791829"
   inkscape:export-ydpi="10.791829" /><path
   d="m 2994.585,869.38723 h 61.8698 v 274.65947 h -61.8698 z"
   style="font-style:normal;font-variant:normal;font-weight:bold;font-stretch:normal;font-size:85.3333px;line-height:0.95;font-family:Ubuntu;-inkscape-font-specification:'Ubuntu Bold';letter-spacing:-2.14267px;word-spacing:-2.18021px;white-space:pre;fill:#112b00;stroke-width:4.64611"
   id="path229"
   inkscape:export-xdpi="10.791829"
   inkscape:export-ydpi="10.791829" /><path
   d="m 3162.0687,1006.5186 q 0,20.2131 4.7592,36.4629 5.1556,16.2495 14.2776,28.1395 9.5184,11.4938 23.0028,17.8349 13.4842,6.3417 30.9349,6.3417 17.0537,0 30.5385,-6.3417 13.8807,-6.3411 23.0027,-17.8349 9.5185,-11.89 14.2777,-28.1395 5.1557,-16.2498 5.1557,-36.4629 0,-20.21299 -5.1557,-36.46284 -4.7592,-16.64603 -14.2777,-28.1394 -9.122,-11.89002 -23.0027,-18.23168 -13.4848,-6.34119 -30.5385,-6.34119 -17.4507,0 -30.9349,6.73784 -13.4844,6.34118 -23.0028,18.2312 -9.122,11.49384 -14.2776,28.13987 -4.7592,16.24939 -4.7592,36.0662 z m 209.802,0 q 0,35.2739 -10.7081,62.2243 -10.3119,26.5547 -28.5554,44.7859 -18.2435,17.835 -43.6263,26.9509 -24.986,9.1154 -53.9377,9.1154 -28.1589,0 -53.1448,-9.1154 -24.9859,-9.1159 -43.6259,-26.9509 -18.6404,-18.2312 -29.3486,-44.7859 -10.7083,-26.9504 -10.7083,-62.2243 0,-35.27384 11.1047,-61.82806 11.1052,-26.95087 29.7451,-45.18208 19.0369,-18.23121 43.6263,-27.34705 24.986,-9.11537 52.3515,-9.11537 28.1589,0 53.1447,9.11537 24.986,9.11584 43.6259,27.34705 18.6405,18.23121 29.3488,45.18208 10.7081,26.55422 10.7081,61.82806 z"
   style="font-style:normal;font-variant:normal;font-weight:bold;font-stretch:normal;font-size:85.3333px;line-height:0.95;font-family:Ubuntu;-inkscape-font-specification:'Ubuntu Bold';letter-spacing:-2.14267px;word-spacing:-2.18021px;white-space:pre;fill:#112b00;stroke-width:4.64611"
   id="path231"
   inkscape:export-xdpi="10.791829"
   inkscape:export-ydpi="10.791829" /><path
   d="m 3597.5182,1144.0467 q -26.5722,-47.1639 -57.5071,-93.1388 -30.9349,-45.9744 -65.8358,-86.79714 v 179.93594 h -61.0769 V 869.38723 h 50.3688 q 13.0878,13.07902 28.9517,32.10305 15.8639,19.02404 32.1247,40.82225 16.6573,21.40204 32.9182,44.7859 16.2603,22.98727 30.538,44.38927 V 869.38723 h 61.4734 v 274.65947 z"
   style="font-style:normal;font-variant:normal;font-weight:bold;font-stretch:normal;font-size:85.3333px;line-height:0.95;font-family:Ubuntu;-inkscape-font-specification:'Ubuntu Bold';letter-spacing:-2.14267px;word-spacing:-2.18021px;white-space:pre;fill:#112b00;stroke-width:4.64611"
   id="path233"
   inkscape:export-xdpi="10.791829"
   inkscape:export-ydpi="10.791829" /></g>
</g>
</svg>
